<?xml version="1.0" encoding="UTF-8"?><svg id="a" xmlns="http://www.w3.org/2000/svg" viewBox="0 0 78.17 110.01"><defs><style>.b{fill:#4338ca;}</style></defs><path class="b" d="M73.34,100.22h-18.63l-15.45-25.59-15.33,25.59H5.31l10.73-17.69,33.13-22.17,12.97-7.66c-2.05,1.42-3.66,3.15-4.84,5.19-1.02,1.73-1.73,3.85-2.12,6.37-.39,2.52,.16,5.42,1.65,8.72l16.51,27.24ZM15.68,34.43c-.32,.16-.47,.35-.47,.59L5.42,18.63h.47c-.08,.08-.08,.16,0,.24h.24l.24-.24H24.05l7.19,12.26c-.24-.16-.51-.12-.83,.12-.47,.24-.63,.55-.47,.94,.16,.31,.51,.31,1.06,0,.31-.24,.47-.47,.47-.71l2.12,3.54c-.16-.08-.43-.04-.83,.12-.55,.39-.71,.79-.47,1.18,.24,.24,.63,.24,1.18,0,.24-.08,.43-.27,.59-.59l.83,1.42c0,.08,.04,.16,.12,.24,0,.08,.02,.12,.06,.12s.06,.04,.06,.12l.83,1.3c-.16,0-.39,.08-.71,.24-.71,.39-.9,.83-.59,1.3,.31,.47,.75,.47,1.3,0,.24-.08,.43-.27,.59-.59l.71,1.18c0,.24,.04,.39,.12,.47,0,.16,.12,.24,.35,.24l.59,1.18c-.31,0-.55,.08-.71,.24-.32,.16-.53,.37-.65,.65-.12,.28-.1,.53,.06,.77,.31,.47,.83,.47,1.53,0,.16-.08,.25-.16,.29-.24,.04-.08,.1-.16,.18-.24l.35,.35,.94-1.53c.47,.16,.9,.08,1.3-.24,.71-.47,.94-.94,.71-1.42-.23-.24-.51-.31-.82-.24l2-3.42v.12c.16,.24,.37,.35,.65,.35s.57-.08,.88-.24c.63-.47,.83-.9,.59-1.3-.32-.47-.79-.51-1.42-.12l.94-1.53,.12-.12c.23-.16,.43-.35,.59-.59,.16-.24,.16-.43,0-.59l2.12-3.42c.16,0,.39-.08,.71-.24,.55-.39,.71-.78,.47-1.18l-.24-.24,2-3.3c.39,.16,.75,.12,1.06-.12,.55-.39,.75-.78,.59-1.18-.16-.16-.39-.24-.71-.24l2.36-3.89v.35c.24,.39,.63,.39,1.18,0,.63-.31,.79-.63,.47-.94-.16-.39-.55-.43-1.18-.12,0,.08-.02,.12-.06,.12-.04,0-.06,.04-.06,.12l.24-.47h5.19c0,.31,.04,.51,.12,.59,.24,.39,.63,.39,1.18,0,.16-.08,.31-.27,.47-.59h4.36c.16,.08,.35,.08,.59,0h2c-.31,.39-.35,.71-.12,.94,.31,.47,.75,.47,1.3,0,.47-.24,.71-.55,.71-.94h2.83l-.35,.59c-.39-.16-.79-.12-1.18,.12-.63,.39-.82,.87-.59,1.42,.16,.16,.39,.24,.71,.24l-2.01,3.18c-.31-.47-.82-.47-1.53,0-.71,.47-.94,.94-.71,1.42,.24,.39,.67,.43,1.3,.12l-.71,1.3c-.08,0-.16,.04-.24,.12-.31,.16-.55,.39-.71,.71-.16,.31-.16,.55,0,.71l-1.77,3.07c-.16,0-.47,.08-.94,.24-.87,.55-1.1,1.1-.71,1.65,0,.08,.12,.16,.36,.24l-1.65,2.71c-.39-.16-.87-.08-1.41,.24-.87,.55-1.1,1.1-.71,1.65,.08,.24,.31,.35,.71,.35l-.71,1.18c-.32,.31-.51,.63-.59,.94l-.35,.59c-.39-.39-.98-.35-1.77,.12-.87,.55-1.14,1.1-.82,1.65,.23,.39,.71,.51,1.41,.35l-.47,.71c-.16,0-.32,.08-.47,.24-.39,.24-.67,.51-.82,.83-.16,.31-.16,.63,0,.94l-.12,.47c-.08-.08-.12-.2-.12-.35-.47-.55-1.14-.59-2-.12-.94,.55-1.22,1.18-.83,1.89,.16,.24,.41,.35,.77,.35s.73-.12,1.12-.35h.12l-.47,.71c-.39,0-.75,.12-1.06,.35-.94,.55-1.22,1.18-.82,1.89l.35,.35-1.3,2.24c-.47-.16-1.02-.04-1.65,.35-.39,.24-.69,.55-.88,.94-.2,.39-.22,.71-.06,.94,.08,.16,.27,.31,.59,.47l-.47,.24c0-.31-.04-.55-.12-.71-.47-.63-1.18-.63-2.12,0-1.02,.55-1.34,1.18-.94,1.89,.08,.16,.31,.31,.71,.47l-.71,.47c.16-.39,.16-.71,0-.94-.16-.31-.45-.47-.88-.47s-.85,.16-1.24,.47c-1.1,.55-1.41,1.18-.94,1.89,.08,.31,.39,.47,.94,.47l-1.06,.71c.24-.31,.28-.71,.12-1.18-.39-.63-1.14-.67-2.24-.12-.94,.71-1.22,1.38-.82,2.01,.24,.39,.67,.51,1.3,.35l-1.89,1.3c.71-.55,.9-1.1,.59-1.65-.39-.63-1.14-.67-2.24-.12-.94,.63-1.26,1.3-.94,2,.47,.63,1.14,.67,2,.12l-.83,.59c-.08,0-.28,.08-.59,.23-.24,.16-.43,.36-.59,.59l-1.42,.94c-.39,0-.75,.12-1.06,.35-.47,.32-.75,.63-.83,.94l-.94,.59c-.39-.16-.83-.04-1.3,.35-.39,.24-.75,.63-1.06,1.18l-.47,.35c-.55-.16-1.06-.04-1.53,.35-.71,.39-1.06,.87-1.06,1.42l-.24,.12c-.63-.16-1.22-.08-1.77,.24-.79,.55-1.18,1.1-1.18,1.65v.12c-.24-.16-.53-.21-.88-.18-.35,.04-.69,.14-1,.29-.79,.47-1.18,1.06-1.18,1.77-.55-.39-1.22-.35-2,.12-.71,.47-1.06,1.06-1.06,1.77-.55-.39-1.22-.35-2,.12-.87,.55-1.22,1.1-1.06,1.65-.63-.31-1.3-.24-2,.23-.87,.55-1.22,1.1-1.06,1.65-.16-.08-.43-.12-.83-.12,.39-.39,.77-.75,1.12-1.06s.73-.67,1.12-1.06c.39,.16,.79,.04,1.18-.35,.86-.47,1.22-1.06,1.06-1.77,.16,.24,.43,.35,.83,.35s.79-.12,1.18-.35c1.02-.63,1.33-1.3,.94-2-.08-.16-.32-.31-.71-.47,.39-.39,.73-.75,1-1.06,.27-.31,.57-.67,.88-1.06,.39,0,.83-.12,1.3-.35,.94-.55,1.26-1.18,.94-1.89-.16,0-.24-.08-.24-.23l.24-.24c0,.16,.04,.31,.12,.47,.39,.55,1.06,.55,2,0,.39-.23,.69-.53,.88-.88,.2-.35,.22-.65,.06-.88-.39-.63-1.1-.67-2.12-.12,.16-.16,.31-.39,.47-.71l1.06-.35c.39-.24,.67-.53,.83-.88,.16-.35,.16-.65,0-.88-.08-.16-.14-.24-.18-.24-.04,0-.1-.04-.18-.12,.24-.39,.45-.83,.65-1.3,.19-.47,.37-.9,.53-1.3,.47,.32,1.02,.28,1.65-.12,1.02-.55,1.3-1.14,.83-1.77-.24-.47-.87-.51-1.89-.12,.16-.31,.24-.59,.24-.82,.31,0,.71-.12,1.18-.36,.86-.55,1.1-1.1,.71-1.65-.32-.55-.9-.55-1.77,0v-1.06c.31,.08,.75,0,1.3-.24,.79-.55,1.06-1.1,.83-1.65-.47-.47-1.06-.47-1.77,0-.16,.08-.39,.28-.71,.59,0-.16-.04-.33-.12-.53-.08-.2-.16-.37-.24-.53,0-.24-.04-.43-.12-.59,0-.16-.12-.24-.35-.24l-.59-.94c.08-.08,.16-.12,.24-.12s.2-.04,.35-.12c.71-.55,.94-1.02,.71-1.42-.16-.24-.37-.35-.65-.35s-.57,.08-.88,.24c-.16,.08-.35,.24-.59,.47l-.71-1.18v-.24l-.24-.24-.83-1.3c.31,0,.55-.08,.71-.24,.24-.16,.43-.35,.59-.59,.16-.24,.16-.43,0-.59-.24-.39-.71-.39-1.42,0-.16,.08-.32,.2-.47,.35l-1.89-3.07c.31,0,.55-.08,.71-.24,.55-.31,.71-.67,.47-1.06-.31-.31-.71-.31-1.18,0-.32,.16-.47,.31-.47,.47l-2-3.3c.24,0,.43-.08,.59-.24,.55-.24,.71-.55,.47-.94-.16-.31-.51-.31-1.06,0-.16,.08-.26,.16-.29,.24-.04,.08-.1,.16-.18,.24l-2.12-3.42c.31,0,.55-.08,.71-.24,.55-.16,.67-.39,.35-.71-.16-.31-.43-.35-.83-.12Zm-6.96-11.44c.16-.16,.2-.31,.12-.47,0-.16-.16-.16-.47,0-.16,.16-.2,.28-.12,.35,0,.24,.16,.28,.47,.12Zm.24-3.07c.16-.16,.2-.27,.12-.35,0-.24-.12-.24-.35,0-.16,.16-.2,.28-.12,.35,0,.24,.12,.24,.35,0Zm2.24,7.19c.24-.24,.31-.43,.24-.59-.16-.16-.35-.16-.59,0-.31,.16-.39,.31-.24,.47,0,.31,.2,.35,.59,.12Zm.24-3.07c.31-.16,.39-.31,.24-.47-.16-.16-.31-.16-.47,0-.31,.16-.39,.31-.24,.47,0,.16,.16,.16,.47,0Zm.35-2.95c.16-.16,.2-.31,.12-.47,0-.16-.16-.16-.47,0-.24,.24-.28,.39-.12,.47,0,.16,.16,.16,.47,0Zm1.89,10.02c.39-.24,.51-.43,.35-.59-.16-.24-.43-.24-.83,0-.39,.16-.47,.35-.24,.59,.08,.24,.31,.24,.71,0Zm.24-2.95c.47-.16,.59-.35,.35-.59-.16-.31-.39-.31-.71,0-.31,.16-.39,.35-.24,.59,.16,.16,.35,.16,.59,0Zm.35-2.95c.24-.24,.31-.43,.24-.59-.16-.16-.35-.16-.59,0-.31,.16-.39,.32-.24,.47,.08,.24,.27,.28,.59,.12Zm.24-3.07c.31-.16,.39-.31,.24-.47,0-.16-.16-.16-.47,0-.32,.16-.39,.32-.24,.47,.16,.16,.31,.16,.47,0Zm.35-2.95c.16-.16,.24-.31,.24-.47-.16-.16-.32-.16-.47,0-.32,.16-.39,.32-.24,.47,.08,.08,.24,.08,.47,0Zm1.18,12.38c-.39,.16-.51,.39-.35,.71,.16,.32,.43,.32,.83,0,.31-.31,.43-.55,.35-.71-.32-.24-.59-.24-.83,0Zm.24-2.95c-.39,.16-.47,.35-.24,.59,.16,.24,.39,.28,.71,.12,.31-.24,.43-.47,.35-.71-.16-.24-.43-.24-.83,0Zm.35-2.95c-.39,.16-.47,.35-.24,.59,.16,.16,.39,.16,.71,0,.31-.16,.39-.35,.24-.59-.16-.16-.39-.16-.71,0Zm.35-2.95c-.32,.16-.39,.35-.24,.59,.16,.16,.35,.16,.59,0,.31-.16,.39-.35,.24-.59-.16-.16-.35-.16-.59,0Zm.35-2.95c-.32,.16-.39,.31-.24,.47,.16,.16,.35,.16,.59,0,.16-.16,.2-.31,.12-.47,0-.16-.16-.16-.47,0Zm1.06,15.68c-.55,.32-.67,.63-.35,.94,.16,.31,.47,.31,.94,0,.47-.31,.59-.59,.35-.83-.16-.39-.47-.43-.94-.12Zm.35-2.95c-.47,.32-.59,.59-.35,.83,.08,.24,.35,.28,.83,.12,.47-.31,.63-.59,.47-.83-.24-.24-.55-.27-.94-.12Zm.35-2.83c-.39,.16-.51,.39-.35,.71,.16,.31,.43,.31,.83,0,.31-.31,.43-.55,.35-.71-.16-.24-.43-.24-.83,0Zm2,45.04c.94-.63,1.26-1.3,.94-2-.16-.31-.47-.47-.94-.47s-.91,.12-1.3,.35c-.39,.32-.69,.65-.88,1-.2,.36-.22,.69-.06,1,.39,.63,1.14,.67,2.24,.12Zm-1.65-47.99c-.47,.16-.59,.35-.35,.59,.16,.24,.39,.28,.71,.12,.31-.24,.43-.47,.35-.71-.16-.31-.39-.31-.71,0Zm.24-2.95c-.39,.16-.47,.35-.24,.59,.08,.24,.31,.24,.71,0,.31-.16,.39-.35,.24-.59-.16-.08-.39-.08-.71,0Zm.35-2.95c-.32,.16-.39,.35-.24,.59,.16,.16,.35,.16,.59,0,.31-.16,.39-.35,.24-.59,0-.16-.2-.16-.59,0Zm1.42,19.69c.55-.31,.71-.67,.47-1.06-.16-.31-.51-.31-1.06,0-.55,.24-.75,.59-.59,1.06,.24,.24,.63,.24,1.18,0Zm-.35-4.01c-.55,.31-.67,.63-.35,.94,.16,.39,.47,.43,.94,.12,.55-.39,.71-.71,.47-.94-.16-.39-.51-.43-1.06-.12Zm.35-2.95c-.55,.31-.67,.63-.35,.94,.16,.31,.47,.31,.94,0,.47-.31,.59-.59,.35-.83-.16-.31-.47-.35-.94-.12Zm.35-2.83c-.39,.16-.51,.39-.35,.71,.16,.31,.43,.35,.83,.12,.47-.31,.63-.59,.47-.83-.16-.31-.47-.31-.94,0Zm.35-2.95c-.39,.16-.51,.39-.35,.71,.16,.31,.43,.31,.83,0,.39-.16,.51-.39,.35-.71-.16-.24-.43-.24-.83,0Zm2,45.04c.39-.31,.69-.65,.88-1,.2-.35,.22-.69,.06-1-.47-.63-1.22-.63-2.24,0-.94,.55-1.22,1.18-.83,1.89,.16,.31,.45,.47,.88,.47s.84-.12,1.24-.35Zm-1.65-47.99c-.39,.16-.51,.39-.35,.71,.16,.16,.39,.16,.71,0,.31-.24,.43-.47,.35-.71-.24-.24-.47-.24-.71,0Zm.35-2.95c-.47,.16-.59,.35-.35,.59,.16,.31,.39,.31,.71,0,.31-.16,.39-.35,.24-.59-.16-.16-.35-.16-.59,0Zm1.06,22.76c.63-.39,.83-.79,.59-1.18-.32-.39-.75-.39-1.3,0-.24,.16-.43,.35-.59,.59-.16,.24-.16,.43,0,.59,.31,.47,.75,.47,1.3,0Zm-.71-25.7c-.24,.16-.35,.35-.35,.59,.16,.16,.35,.16,.59,0,.24-.08,.35-.27,.35-.59-.16-.16-.35-.16-.59,0Zm1.06,22.76c.55-.39,.71-.79,.47-1.18-.24-.39-.63-.39-1.18,0-.63,.31-.83,.67-.59,1.06,.24,.39,.67,.43,1.3,.12Zm.24-3.07c.55-.31,.71-.67,.47-1.06-.16-.31-.51-.31-1.06,0-.63,.31-.79,.67-.47,1.06,.16,.31,.51,.31,1.06,0Zm-.24-4.01c-.63,.31-.79,.63-.47,.94,.16,.39,.51,.43,1.06,.12,.47-.31,.63-.63,.47-.94-.24-.39-.59-.43-1.06-.12Zm.24-2.83c-.47,.16-.59,.43-.35,.83,.16,.31,.47,.31,.94,0,.47-.31,.63-.59,.47-.83-.24-.24-.59-.24-1.06,0Zm.35-2.95c-.39,.24-.51,.51-.35,.83,.16,.31,.47,.31,.94,0,.39-.24,.51-.51,.35-.83-.16-.31-.47-.31-.94,0Zm.35-2.95c-.39,.24-.51,.47-.35,.71,.16,.32,.43,.32,.83,0,.39-.16,.51-.39,.35-.71-.16-.24-.43-.24-.83,0Zm1.18,22.87c.31-.16,.55-.37,.71-.65,.16-.27,.16-.49,0-.65-.31-.47-.83-.51-1.53-.12-.63,.47-.83,.94-.59,1.41,.31,.47,.79,.47,1.42,0Zm.83,22.17c.39-.24,.69-.55,.88-.94,.2-.39,.21-.75,.06-1.06-.47-.63-1.18-.63-2.12,0-.47,.24-.79,.55-.94,.94-.16,.39-.16,.71,0,.94,.39,.63,1.1,.67,2.12,.12Zm-1.65-47.99c-.32,.31-.43,.55-.35,.71,.16,.16,.43,.16,.83,0,.24-.24,.31-.47,.24-.71-.16-.16-.39-.16-.71,0Zm.35,21.58c-.24,.16-.43,.35-.59,.59-.16,.24-.16,.43,0,.59,.24,.39,.71,.43,1.42,.12,.71-.39,.9-.83,.59-1.3-.24-.39-.71-.39-1.42,0Zm.35,21.46c-.39,.23-.67,.53-.83,.88-.16,.35-.16,.69,0,1,.16,.24,.43,.38,.83,.41,.39,.04,.79-.1,1.18-.41,.39-.23,.69-.53,.88-.88,.2-.35,.22-.65,.06-.88-.39-.63-1.1-.67-2.12-.12Zm0-24.41c-.55,.31-.75,.71-.59,1.18,.31,.47,.75,.47,1.3,0,.71-.31,.9-.71,.59-1.18-.24-.39-.67-.39-1.3,0Zm.35,21.46c-.87,.55-1.14,1.14-.83,1.77,.39,.63,1.06,.67,2,.12,1.02-.55,1.3-1.14,.83-1.77-.39-.63-1.06-.67-2-.12Zm0-24.41c-.55,.47-.71,.83-.47,1.06,.16,.39,.55,.43,1.18,.12,.55-.39,.71-.78,.47-1.18-.16-.31-.55-.31-1.18,0Zm.35-2.95c-.55,.39-.71,.75-.47,1.06,.08,.16,.24,.24,.47,.24s.43-.08,.59-.24c.55-.31,.75-.63,.59-.94-.24-.31-.63-.35-1.18-.12Zm.35-2.95c-.47,.32-.63,.67-.47,1.06,.16,.31,.51,.31,1.06,0,.47-.31,.63-.63,.47-.94-.24-.39-.59-.43-1.06-.12Zm.35-2.83c-.47,.24-.63,.51-.47,.83,.16,.31,.47,.31,.94,0,.47-.24,.63-.51,.47-.83-.16-.31-.47-.31-.94,0Zm1.3,22.99c.31-.16,.55-.39,.71-.71,.16-.31,.16-.55,0-.71-.39-.47-.94-.51-1.65-.12-.79,.39-1.02,.9-.71,1.53,.24,.39,.78,.39,1.65,0Zm-1.06-25.94c-.39,.24-.51,.51-.35,.83,.16,.31,.47,.31,.94,0,.39-.24,.51-.51,.35-.83-.16-.31-.47-.31-.94,0Zm.47,21.46c-.39,.16-.65,.39-.77,.71-.12,.31-.1,.55,.06,.71,.16,.24,.37,.35,.65,.35s.57-.08,.88-.24c.31-.16,.55-.39,.71-.71,.16-.31,.16-.55,0-.71-.16-.24-.37-.35-.65-.35s-.57,.08-.88,.24Zm.35-2.83c-.32,.16-.55,.37-.71,.65-.16,.28-.16,.49,0,.65,.31,.47,.83,.47,1.53,0,.71-.39,.9-.83,.59-1.3-.31-.47-.79-.47-1.41,0Zm1.53,23.46c.39-.24,.69-.55,.88-.94,.2-.39,.21-.71,.06-.94-.39-.63-1.1-.67-2.12-.12-.39,.24-.69,.55-.88,.94-.2,.39-.22,.71-.06,.94,.39,.63,1.1,.67,2.12,.12Zm-.47-25.11c.71-.39,.9-.83,.59-1.3-.24-.39-.71-.39-1.42,0-.55,.39-.75,.79-.59,1.18,.31,.55,.79,.59,1.42,.12Zm.83,22.17c.39-.31,.67-.65,.83-1,.16-.35,.16-.65,0-.88-.39-.63-1.06-.67-2-.12-1.02,.55-1.34,1.18-.94,1.89,.47,.63,1.18,.67,2.12,.12Zm-.83-4.95c-.94,.55-1.26,1.14-.94,1.77,.39,.63,1.06,.67,2,.12,1.02-.55,1.3-1.14,.83-1.77-.16-.24-.41-.37-.77-.41-.35-.04-.73,.06-1.12,.29Zm-.47-21.46c-.55,.39-.71,.79-.47,1.18,.16,.47,.59,.47,1.3,0,.63-.31,.79-.71,.47-1.18-.16-.39-.59-.39-1.3,0Zm.71,18.63c-.87,.47-1.14,1.02-.83,1.65,.39,.47,1.06,.51,2,.12,.86-.63,1.1-1.22,.71-1.77-.32-.55-.94-.55-1.89,0Zm-.35-21.58c-.55,.47-.71,.83-.47,1.06,.16,.39,.55,.43,1.18,.12,.55-.47,.71-.83,.47-1.06-.16-.39-.55-.43-1.18-.12Zm.35-2.95c-.55,.47-.71,.83-.47,1.06,.16,.47,.55,.47,1.18,0,.47-.31,.63-.63,.47-.94-.24-.31-.63-.35-1.18-.12Zm.35,21.58c-.39,.16-.65,.41-.77,.77-.12,.35-.1,.65,.06,.88,.16,.24,.39,.36,.71,.36s.67-.12,1.06-.36c.78-.55,1.06-1.1,.83-1.65-.39-.55-1.02-.55-1.89,0Zm.35-2.95c-.79,.39-1.02,.9-.71,1.53,.16,.24,.39,.35,.71,.35s.63-.08,.94-.24c.86-.55,1.14-1.06,.83-1.53-.47-.55-1.06-.59-1.77-.12Zm.35-2.95c-.71,.55-.94,1.06-.71,1.53,.31,.47,.86,.47,1.65,0,.31-.16,.55-.39,.71-.71,.16-.31,.16-.55,0-.71-.16-.24-.39-.35-.71-.35s-.63,.08-.94,.24Zm1.18-1.41c.78-.39,1.02-.86,.71-1.42-.16-.24-.37-.35-.65-.35s-.57,.08-.88,.24c-.71,.55-.94,1.02-.71,1.42,.16,.24,.37,.35,.65,.35s.57-.08,.88-.24Zm-.47-4.36c-.63,.39-.87,.83-.71,1.3,.31,.47,.83,.47,1.53,0,.71-.39,.9-.83,.59-1.3-.24-.39-.71-.39-1.42,0Zm1.53,23.46c.47-.23,.79-.55,.94-.94,.16-.39,.16-.71,0-.94-.39-.63-1.1-.67-2.12-.12-.39,.24-.69,.55-.88,.94-.2,.39-.22,.75-.06,1.06,.47,.63,1.18,.63,2.12,0Zm-.83-4.95c-.39,.23-.69,.55-.88,.94-.2,.39-.22,.71-.06,.94,.39,.63,1.1,.67,2.12,.12,.94-.71,1.22-1.34,.83-1.89-.16-.31-.43-.47-.83-.47s-.79,.12-1.18,.35Zm-.35-21.46c-.63,.39-.83,.79-.59,1.18,.08,.16,.25,.26,.53,.29,.27,.04,.53-.02,.77-.18,.71-.39,.9-.83,.59-1.3-.31-.39-.75-.39-1.3,0Zm1.77,20.4c1.02-.55,1.3-1.14,.83-1.77-.16-.24-.41-.37-.77-.41-.35-.04-.73,.06-1.12,.29-.94,.55-1.26,1.18-.94,1.88,.16,.24,.43,.36,.83,.36s.78-.12,1.18-.36Zm-1.53-23.35c-.55,.39-.71,.79-.47,1.18,.16,.47,.59,.47,1.3,0,.55-.31,.75-.71,.59-1.18-.39-.31-.87-.31-1.41,0Zm1.89,20.4c.86-.55,1.14-1.14,.83-1.77-.39-.55-1.02-.55-1.89,0-.94,.55-1.22,1.1-.83,1.65,.31,.63,.94,.67,1.89,.12Zm-.83-4.72c-.79,.55-1.02,1.1-.71,1.65,.16,.24,.39,.35,.71,.35s.67-.12,1.06-.35c.39-.16,.67-.41,.83-.77,.16-.35,.16-.61,0-.77-.47-.63-1.1-.67-1.89-.12Zm.35-2.95c-.31,.24-.55,.51-.71,.83-.16,.31-.16,.55,0,.71,.16,.24,.39,.35,.71,.35s.67-.08,1.06-.24c.31-.24,.55-.51,.71-.83,.16-.31,.16-.55,0-.71-.16-.24-.39-.35-.71-.35s-.67,.08-1.06,.24Zm1.3-1.42c.78-.39,1.02-.86,.71-1.42-.24-.47-.79-.51-1.65-.12-.71,.55-.94,1.06-.71,1.53,.16,.16,.39,.26,.71,.29,.31,.04,.63-.06,.94-.29Zm-.59-4.36c-.32,.16-.55,.37-.71,.65-.16,.28-.16,.49,0,.65,.24,.47,.79,.51,1.65,.12,.71-.47,.9-.94,.59-1.42-.16-.16-.37-.25-.65-.29-.28-.04-.57,.06-.88,.29Zm.35-2.95c-.71,.39-.9,.83-.59,1.3,.24,.39,.71,.39,1.42,0,.71-.39,.9-.83,.59-1.3-.24-.39-.71-.39-1.42,0Zm1.65,23.35c1.02-.55,1.3-1.14,.83-1.77-.16-.23-.41-.37-.77-.41-.35-.04-.73,.06-1.12,.29-.94,.55-1.26,1.18-.94,1.89,.16,.24,.43,.35,.83,.35s.79-.12,1.18-.35Zm.24-2.83c.94-.55,1.22-1.18,.83-1.89-.32-.63-.98-.67-2-.12-.94,.63-1.26,1.26-.94,1.89,.39,.63,1.1,.67,2.12,.12Zm-.83-4.83c-.94,.55-1.22,1.14-.83,1.77,.16,.23,.41,.35,.77,.35s.73-.12,1.12-.35c.86-.55,1.18-1.14,.94-1.77-.47-.63-1.14-.63-2,0Zm1.42-1.18c.78-.55,1.06-1.14,.83-1.77-.39-.55-1.02-.55-1.89,0-.94,.55-1.22,1.1-.83,1.65,.16,.24,.41,.37,.77,.41,.35,.04,.73-.06,1.12-.29Zm-.71-4.72c-.87,.55-1.14,1.1-.83,1.65,.16,.24,.39,.35,.71,.35s.67-.12,1.06-.35c.86-.39,1.14-.9,.83-1.53-.47-.55-1.06-.59-1.77-.12Zm.24-2.95c-.32,.24-.55,.51-.71,.83-.16,.31-.16,.55,0,.71,.16,.24,.39,.35,.71,.35s.67-.08,1.06-.24c.71-.47,.94-.98,.71-1.53-.16-.24-.39-.35-.71-.35s-.67,.08-1.06,.24Zm.35-2.83c-.71,.47-.94,.94-.71,1.42,.39,.55,.94,.55,1.65,0,.78-.39,1.02-.86,.71-1.42-.31-.55-.87-.55-1.65,0Zm2.59,14.62c.94-.55,1.26-1.18,.94-1.89-.47-.63-1.18-.63-2.12,0-1.02,.55-1.3,1.14-.83,1.77,.16,.31,.43,.47,.83,.47s.78-.12,1.18-.35Zm-.83-4.83c-1.02,.55-1.3,1.14-.83,1.77,.16,.23,.43,.35,.83,.35s.79-.12,1.18-.35c.78-.55,1.06-1.14,.82-1.77-.39-.55-1.06-.55-2,0Zm.35-2.95c-.87,.55-1.14,1.1-.83,1.65,.39,.63,1.02,.67,1.89,.12,.78-.55,1.06-1.1,.83-1.65-.39-.63-1.02-.67-1.89-.12Zm1.3-1.18c.87-.47,1.14-1.02,.83-1.65-.16-.24-.39-.35-.71-.35s-.67,.08-1.06,.24c-.87,.55-1.14,1.1-.83,1.65,.39,.47,.98,.51,1.77,.12Zm-.59-4.72c-.87,.55-1.14,1.1-.83,1.65,.47,.47,1.06,.47,1.77,0,.87-.47,1.1-.98,.71-1.53-.16-.24-.39-.35-.71-.35s-.63,.08-.94,.24Zm.35-2.83c-.39,.16-.65,.39-.77,.71-.12,.31-.1,.55,.06,.71,.16,.24,.37,.35,.65,.35s.57-.08,.88-.24c.79-.55,1.02-1.06,.71-1.53-.16-.16-.37-.25-.65-.29-.28-.04-.57,.06-.88,.29Zm2.48,14.62c1.02-.55,1.34-1.18,.94-1.89-.47-.63-1.18-.63-2.12,0-1.02,.55-1.3,1.14-.83,1.77,.39,.63,1.06,.67,2,.12Zm.35-2.95c.39-.24,.67-.53,.83-.88,.16-.35,.16-.69,0-1-.39-.55-1.06-.55-2,0-.39,.24-.67,.53-.83,.88-.16,.35-.16,.65,0,.88,.47,.63,1.14,.67,2,.12Zm-.82-4.83c-.79,.55-1.06,1.14-.83,1.77,.39,.55,1.02,.55,1.89,0,.94-.55,1.22-1.1,.83-1.65-.16-.24-.41-.37-.77-.41-.35-.04-.73,.06-1.12,.29Zm1.41-1.18c.87-.55,1.1-1.1,.71-1.65-.16-.24-.39-.35-.71-.35s-.67,.08-1.06,.24c-.87,.55-1.14,1.1-.83,1.65,.39,.55,1.02,.59,1.89,.12Zm-.71-4.6c-.87,.47-1.1,.98-.71,1.53,.24,.55,.79,.55,1.65,0,.86-.47,1.1-.98,.71-1.53-.31-.55-.87-.55-1.65,0Zm.35-2.95c-.39,.16-.65,.39-.77,.71-.12,.31-.1,.55,.06,.71,.24,.47,.79,.51,1.65,.12,.71-.55,.94-1.06,.71-1.53-.47-.47-1.02-.47-1.65,0Zm.35-2.95c-.79,.39-1.02,.87-.71,1.42,.31,.47,.83,.47,1.53,0s.94-.94,.71-1.42c-.31-.47-.83-.47-1.53,0Zm2.12,17.57c1.02-.55,1.34-1.18,.94-1.89-.47-.63-1.14-.63-2,0-1.02,.55-1.34,1.18-.94,1.89,.16,.24,.43,.35,.82,.35s.79-.12,1.18-.35Zm.35-2.95c1.02-.55,1.3-1.14,.83-1.77-.16-.31-.43-.47-.83-.47s-.79,.12-1.18,.35c-.87,.55-1.14,1.14-.82,1.77,.47,.63,1.14,.67,2,.12Zm-.83-4.83c-.87,.55-1.14,1.14-.82,1.77,.39,.55,1.02,.55,1.89,0,.94-.55,1.22-1.1,.82-1.65-.31-.63-.94-.67-1.89-.12Zm1.42-1.18c.86-.55,1.1-1.1,.71-1.65-.16-.24-.39-.35-.71-.35s-.67,.08-1.06,.24c-.87,.55-1.1,1.1-.71,1.65,.16,.24,.39,.35,.71,.35s.67-.08,1.06-.24Zm-.71-4.6c-.87,.47-1.1,.98-.71,1.53,.16,.24,.39,.35,.71,.35s.63-.12,.94-.35c.86-.39,1.14-.9,.82-1.53-.39-.55-.98-.55-1.77,0Zm.35-2.95c-.39,.16-.65,.39-.77,.71-.12,.32-.1,.55,.06,.71,.23,.47,.78,.51,1.65,.12,.31-.16,.55-.39,.71-.71,.16-.31,.16-.59,0-.83-.16-.16-.39-.24-.71-.24s-.63,.08-.94,.24Zm.35-2.95c-.31,.16-.55,.39-.71,.71-.16,.32-.16,.55,0,.71,.16,.16,.37,.26,.65,.29,.27,.04,.57-.06,.88-.29,.31-.16,.55-.37,.71-.65,.16-.27,.16-.49,0-.65-.16-.24-.38-.35-.65-.35s-.57,.08-.88,.24Zm.35-2.95c-.71,.47-.94,.94-.71,1.41,.31,.47,.82,.47,1.53,0,.71-.39,.9-.83,.59-1.3s-.79-.51-1.41-.12Zm1.89,20.52c1.02-.55,1.3-1.14,.82-1.77-.39-.63-1.06-.67-2-.12-1.02,.55-1.34,1.18-.94,1.89,.39,.55,1.1,.55,2.12,0Zm-1.53-23.35c-.71,.31-.9,.71-.59,1.18,.08,.16,.25,.24,.53,.24s.53-.08,.77-.24c.71-.31,.9-.71,.59-1.18-.31-.39-.75-.39-1.3,0Zm1.77,20.4c1.02-.55,1.3-1.14,.82-1.77-.16-.31-.41-.47-.77-.47s-.73,.12-1.12,.35c-.94,.55-1.26,1.14-.94,1.77,.16,.32,.43,.47,.83,.47s.79-.12,1.18-.35Zm-.83-4.83c-.39,.24-.65,.53-.77,.88-.12,.35-.1,.65,.06,.88,.31,.55,.94,.55,1.89,0,.39-.16,.65-.41,.77-.77,.12-.35,.1-.65-.06-.88-.24-.47-.87-.51-1.89-.12Zm.35-2.83c-.87,.47-1.1,.98-.71,1.53,.31,.63,.9,.67,1.77,.12,.79-.55,1.06-1.1,.83-1.65-.39-.55-1.02-.55-1.89,0Zm.35-2.95c-.79,.39-1.02,.9-.71,1.53,.16,.24,.39,.35,.71,.35s.67-.12,1.06-.35c.31-.16,.55-.39,.71-.71,.16-.31,.16-.59,0-.83-.16-.16-.39-.25-.71-.29-.32-.04-.67,.06-1.06,.29Zm1.3-1.42c.31-.16,.55-.39,.71-.71,.16-.31,.16-.55,0-.71-.24-.47-.79-.51-1.65-.12-.31,.16-.55,.39-.71,.71-.16,.31-.16,.55,0,.71,.16,.24,.39,.35,.71,.35s.63-.08,.94-.24Zm-.59-4.48c-.31,.16-.55,.39-.71,.71-.16,.31-.16,.55,0,.71,.16,.24,.37,.35,.65,.35s.57-.08,.88-.24c.79-.47,1.02-.94,.71-1.42-.16-.24-.37-.35-.65-.35s-.57,.08-.88,.24Zm.36-2.95c-.63,.39-.83,.87-.59,1.42,.08,.16,.25,.24,.53,.24s.57-.08,.88-.24c.71-.39,.9-.83,.59-1.3-.31-.47-.79-.51-1.41-.12Zm.35-2.83c-.71,.32-.9,.71-.59,1.18,.24,.39,.67,.43,1.3,.12,.71-.39,.9-.83,.59-1.3-.08-.16-.26-.24-.53-.24s-.53,.08-.77,.24Zm1.53,23.35c1.02-.55,1.3-1.14,.83-1.77-.16-.31-.43-.47-.83-.47s-.79,.12-1.18,.35c-.94,.55-1.26,1.18-.94,1.89,.47,.63,1.18,.63,2.12,0Zm-1.18-26.29c-.71,.32-.9,.71-.59,1.18,.24,.39,.67,.39,1.3,0,.55-.31,.75-.71,.59-1.18-.31-.39-.75-.39-1.3,0Zm1.41,23.35c.94-.55,1.26-1.14,.94-1.77-.47-.63-1.14-.67-2-.12-1.02,.55-1.3,1.14-.83,1.77,.16,.31,.41,.47,.77,.47s.72-.12,1.12-.35Zm.35-2.95c.87-.55,1.14-1.14,.83-1.77-.39-.55-1.02-.59-1.89-.12-1.02,.55-1.3,1.14-.83,1.77,.24,.47,.87,.51,1.89,.12Zm-.71-4.72c-.39,.16-.67,.41-.82,.77-.16,.35-.16,.61,0,.77,.31,.63,.9,.67,1.77,.12,.79-.55,1.06-1.1,.83-1.65-.39-.55-.98-.55-1.77,0Zm.24-2.95c-.31,.16-.55,.39-.71,.71-.16,.31-.16,.59,0,.83,.16,.24,.39,.35,.71,.35s.67-.08,1.06-.24c.71-.55,.94-1.1,.71-1.65-.16-.16-.39-.25-.71-.29-.31-.04-.67,.06-1.06,.29Zm.35-2.95c-.31,.16-.55,.39-.71,.71-.16,.31-.16,.59,0,.83,.39,.39,.94,.39,1.65,0,.79-.39,1.02-.86,.71-1.41-.24-.47-.79-.51-1.65-.12Zm.35-2.95c-.31,.16-.55,.39-.71,.71-.16,.31-.16,.55,0,.71,.31,.47,.86,.51,1.65,.12,.71-.47,.9-.94,.59-1.41-.16-.24-.38-.35-.65-.35s-.57,.08-.88,.24Zm.35-2.83c-.71,.39-.9,.83-.59,1.3,.24,.39,.71,.39,1.42,0,.71-.39,.9-.83,.59-1.3-.24-.39-.71-.39-1.42,0Zm.35-2.95c-.63,.39-.82,.79-.59,1.18,.31,.47,.79,.51,1.42,.12,.55-.39,.75-.83,.59-1.3-.32-.47-.79-.47-1.42,0Zm.35-2.95c-.63,.39-.82,.79-.59,1.18,.31,.47,.75,.47,1.3,0,.23-.16,.43-.35,.59-.59s.16-.43,0-.59c-.31-.39-.75-.39-1.3,0Zm.36-2.95c-.55,.39-.75,.75-.59,1.06,.23,.39,.63,.43,1.18,.12,.55-.31,.75-.67,.59-1.06-.24-.31-.63-.35-1.18-.12Zm1.41,23.35c.86-.55,1.14-1.14,.83-1.77-.39-.55-1.02-.55-1.89,0-.39,.16-.67,.41-.83,.77-.16,.35-.16,.65,0,.88,.16,.24,.41,.35,.77,.35s.73-.08,1.12-.24Zm.24-3.07c.86-.47,1.14-1.02,.82-1.65-.31-.55-.9-.55-1.77,0-.87,.55-1.14,1.1-.83,1.65,.39,.55,.98,.55,1.77,0Zm.35-2.95c.79-.55,1.02-1.06,.71-1.53-.16-.24-.39-.35-.71-.35s-.63,.08-.94,.24c-.79,.55-1.06,1.06-.83,1.53,.39,.47,.98,.51,1.77,.12Zm-.71-4.6c-.71,.55-.91,1.06-.59,1.53,.16,.16,.37,.26,.65,.29,.27,.04,.57-.06,.88-.29,.78-.39,1.02-.86,.71-1.42-.24-.47-.79-.51-1.65-.12Zm.35-2.95c-.63,.55-.83,1.02-.59,1.41,.16,.24,.37,.35,.65,.35s.57-.08,.88-.24c.31-.16,.53-.39,.65-.71,.12-.31,.1-.55-.06-.71-.31-.47-.82-.51-1.53-.12Zm.35-2.83c-.71,.39-.9,.83-.59,1.3,.24,.39,.71,.39,1.41,0,.31-.16,.55-.37,.71-.65,.16-.27,.16-.49,0-.65-.32-.47-.83-.47-1.53,0Zm.35-2.95c-.63,.39-.83,.79-.59,1.18,.31,.47,.79,.51,1.41,.12,.63-.47,.83-.9,.59-1.3-.23-.39-.71-.39-1.41,0Zm.35-2.95c-.63,.47-.83,.87-.59,1.18,.31,.47,.75,.47,1.3,0,.71-.31,.9-.71,.59-1.18-.39-.39-.83-.39-1.3,0Zm.35-2.95c-.55,.39-.75,.79-.59,1.18,.31,.31,.75,.31,1.3,0,.24-.16,.41-.33,.53-.53,.12-.2,.1-.37-.06-.53-.24-.31-.63-.35-1.18-.12Zm1.77,20.28c.39-.16,.65-.41,.77-.77,.12-.35,.1-.61-.06-.77-.31-.63-.9-.67-1.77-.12-.87,.55-1.14,1.1-.82,1.65,.39,.55,1.02,.55,1.89,0Zm.23-2.95c.87-.63,1.1-1.14,.71-1.53-.24-.47-.79-.51-1.65-.12-.87,.55-1.14,1.06-.82,1.53,.39,.47,.98,.51,1.77,.12Zm.24-3.07c.39-.16,.65-.39,.77-.71,.12-.31,.1-.55-.06-.71-.16-.24-.37-.35-.65-.35s-.57,.08-.88,.24c-.71,.47-.94,.98-.71,1.53,.16,.16,.37,.26,.65,.29,.28,.04,.57-.06,.88-.29Zm-.59-4.36c-.71,.39-.9,.83-.59,1.3,.16,.24,.37,.35,.65,.35s.57-.08,.88-.24c.31-.16,.55-.39,.71-.71,.16-.31,.16-.55,0-.71-.31-.47-.87-.47-1.65,0Zm.35-2.95c-.71,.39-.9,.83-.59,1.3,.31,.47,.78,.47,1.41,0,.31-.16,.55-.37,.71-.65,.16-.27,.16-.49,0-.65-.31-.47-.82-.47-1.53,0Zm.36-2.95c-.63,.47-.83,.9-.59,1.3,.23,.39,.71,.39,1.41,0,.63-.47,.83-.9,.59-1.3-.24-.39-.71-.39-1.41,0Zm.35-2.95c-.55,.39-.75,.79-.59,1.18,.24,.39,.67,.43,1.3,.12,.71-.47,.9-.86,.59-1.18-.24-.39-.67-.43-1.3-.12Zm2.36,14.38c.86-.39,1.14-.9,.83-1.53-.39-.47-.98-.51-1.77-.12-.39,.24-.65,.51-.77,.83-.12,.31-.1,.55,.06,.71,.31,.63,.86,.67,1.65,.12Zm.35-2.95c.71-.55,.94-1.06,.71-1.53-.39-.55-.94-.55-1.65,0-.79,.39-1.02,.87-.71,1.41,.24,.47,.79,.51,1.65,.12Zm-.59-4.48c-.79,.39-1.02,.87-.71,1.41,.31,.47,.83,.47,1.53,0,.71-.47,.94-.94,.71-1.41-.31-.47-.83-.47-1.53,0Zm.35-2.95c-.31,.16-.55,.37-.71,.65-.16,.28-.16,.49,0,.65,.31,.47,.83,.51,1.53,.12,.63-.47,.83-.94,.59-1.42-.31-.47-.79-.47-1.42,0Zm.24-2.95c-.55,.39-.75,.83-.59,1.3,.24,.39,.71,.39,1.42,0,.63-.39,.82-.78,.59-1.18-.32-.47-.79-.51-1.42-.12Zm.35-2.95c-.55,.39-.75,.79-.59,1.18,.24,.39,.71,.43,1.42,.12,.55-.39,.71-.78,.47-1.18-.16-.39-.59-.43-1.3-.12Zm2.71,11.44c.71-.55,.94-1.06,.71-1.53-.16-.16-.39-.25-.71-.29-.32-.04-.63,.06-.94,.29-.32,.16-.55,.39-.71,.71-.16,.31-.16,.55,0,.71,.23,.47,.78,.51,1.65,.12Zm-.59-4.48c-.71,.47-.94,.94-.71,1.42,.31,.47,.82,.47,1.53,0,.79-.39,1.02-.86,.71-1.42-.32-.47-.83-.47-1.53,0Zm.35-2.95c-.31,.16-.55,.37-.71,.65-.16,.28-.16,.49,0,.65,.31,.47,.82,.51,1.53,.12,.71-.39,.9-.83,.59-1.3-.23-.47-.71-.51-1.41-.12Zm.35-2.95c-.71,.39-.9,.83-.59,1.3,.08,.16,.25,.24,.53,.24s.53-.08,.77-.24c.63-.39,.83-.78,.59-1.18-.24-.39-.67-.43-1.3-.12Zm2.71,1.06c-.71,.39-.91,.83-.59,1.3,.23,.47,.71,.51,1.41,.12,.71-.39,.9-.83,.59-1.3-.24-.47-.71-.51-1.41-.12Z"/></svg>