<?xml version="1.0" encoding="UTF-8"?><svg id="a" xmlns="http://www.w3.org/2000/svg" viewBox="0 0 15.09 15.09"><defs><style>.b{fill:#fff;}.c{fill:#4338ca;}</style></defs><circle class="b" cx="7.54" cy="7.54" r="7.54"/><path class="c" d="M11.55,12.25h-2.18l-1.81-3-1.79,3H3.59l1.26-2.07,3.88-2.6,1.52-.9c-.24,.17-.43,.37-.57,.61-.12,.2-.2,.45-.25,.75-.05,.29,.02,.63,.19,1.02l1.93,3.19ZM4.8,4.54s-.06,.04-.06,.07l-1.15-1.92h.06s0,.02,0,.03h.03l.03-.03h2.07l.84,1.44s-.06-.01-.1,.01c-.06,.03-.07,.06-.06,.11,.02,.04,.06,.04,.12,0,.04-.03,.06-.06,.06-.08l.25,.41s-.05,0-.1,.01c-.06,.05-.08,.09-.06,.14,.03,.03,.07,.03,.14,0,.03,0,.05-.03,.07-.07l.1,.17s0,.02,.01,.03c0,0,0,.01,0,.01,0,0,0,0,0,.01l.1,.15s-.05,0-.08,.03c-.08,.05-.11,.1-.07,.15s.09,.06,.15,0c.03,0,.05-.03,.07-.07l.08,.14s0,.05,.01,.06c0,.02,.01,.03,.04,.03l.07,.14s-.06,0-.08,.03c-.04,.02-.06,.04-.08,.08-.01,.03-.01,.06,0,.09,.04,.06,.1,.06,.18,0,.02,0,.03-.02,.03-.03,0,0,.01-.02,.02-.03l.04,.04,.11-.18c.06,.02,.11,0,.15-.03,.08-.06,.11-.11,.08-.17-.03-.03-.06-.04-.1-.03l.23-.4h0s.04,.06,.08,.06,.07,0,.1-.03c.07-.06,.1-.11,.07-.15-.04-.06-.09-.06-.17-.01l.11-.18h.01s.05-.06,.07-.08c.02-.03,.02-.05,0-.07l.25-.4s.05,0,.08-.03c.06-.05,.08-.09,.05-.14l-.03-.03,.23-.39s.09,.01,.12-.01c.06-.05,.09-.09,.07-.14-.02-.02-.04-.03-.08-.03l.28-.46v.04s.07,.05,.14,0c.07-.04,.09-.07,.05-.11-.02-.05-.06-.05-.14-.01,0,0,0,.01,0,.01,0,0,0,0,0,.01l.03-.06h.61s0,.06,.02,.07c.03,.05,.07,.05,.14,0,.02,0,.04-.03,.06-.07h.51s.04,0,.07,0h.24s-.04,.08-.02,.11c.04,.06,.09,.06,.15,0,.05-.03,.08-.06,.08-.11h.33l-.04,.07s-.09-.01-.14,.01c-.07,.05-.1,.1-.07,.17,.02,.02,.05,.03,.08,.03l-.23,.37c-.04-.06-.1-.06-.18,0-.08,.06-.11,.11-.08,.17,.03,.05,.08,.05,.15,.01l-.08,.15s-.02,0-.03,.01c-.04,.02-.06,.05-.08,.08-.02,.04-.02,.06,0,.08l-.21,.36s-.06,0-.11,.03c-.1,.06-.13,.13-.08,.19,0,0,.01,.02,.04,.03l-.19,.32s-.1,0-.17,.03c-.1,.06-.13,.13-.08,.19,0,.03,.04,.04,.08,.04l-.08,.14s-.06,.07-.07,.11l-.04,.07s-.12-.04-.21,.01c-.1,.06-.13,.13-.1,.19,.03,.05,.08,.06,.17,.04l-.06,.08s-.04,0-.05,.03c-.05,.03-.08,.06-.1,.1-.02,.04-.02,.07,0,.11v.06s-.03-.02-.03-.04c-.05-.06-.13-.07-.23-.01-.11,.06-.14,.14-.1,.22,.02,.03,.05,.04,.09,.04s.08-.01,.13-.04h.01l-.05,.08s-.09,.01-.12,.04c-.11,.06-.14,.14-.1,.22l.04,.04-.15,.26c-.05-.02-.12,0-.19,.04-.05,.03-.08,.06-.1,.11-.02,.05-.03,.08,0,.11,0,.02,.03,.04,.07,.06l-.06,.03s0-.06-.01-.08c-.06-.07-.14-.07-.25,0-.12,.06-.16,.14-.11,.22,0,.02,.04,.04,.08,.06l-.08,.06s.02-.08,0-.11c-.02-.04-.05-.06-.1-.06s-.1,.02-.15,.06c-.13,.06-.17,.14-.11,.22,0,.04,.05,.06,.11,.06l-.12,.08s.03-.08,.01-.14c-.05-.07-.13-.08-.26-.01-.11,.08-.14,.16-.1,.23,.03,.05,.08,.06,.15,.04l-.22,.15c.08-.06,.11-.13,.07-.19-.05-.07-.13-.08-.26-.01-.11,.07-.15,.15-.11,.23,.06,.07,.13,.08,.23,.01l-.1,.07s-.03,0-.07,.03c-.03,.02-.05,.04-.07,.07l-.17,.11s-.09,.01-.12,.04c-.06,.04-.09,.07-.1,.11l-.11,.07s-.1,0-.15,.04c-.05,.03-.09,.07-.12,.14l-.06,.04c-.06-.02-.12,0-.18,.04-.08,.05-.12,.1-.12,.17h-.03c-.07,0-.14,0-.21,.04-.09,.06-.14,.13-.14,.19h0s-.06-.01-.1,0c-.04,0-.08,.02-.12,.04-.09,.05-.14,.12-.14,.21-.06-.05-.14-.04-.23,.01-.08,.06-.12,.12-.12,.21-.06-.05-.14-.04-.23,.01-.1,.06-.14,.13-.12,.19-.07-.04-.15-.03-.23,.03-.1,.06-.14,.13-.12,.19-.02,0-.05-.01-.1-.01,.05-.05,.09-.09,.13-.12,.04-.04,.08-.08,.13-.12,.05,.02,.09,0,.14-.04,.1-.06,.14-.12,.12-.21,.02,.03,.05,.04,.1,.04s.09-.01,.14-.04c.12-.07,.16-.15,.11-.24,0-.02-.04-.04-.08-.05,.05-.05,.08-.09,.12-.12,.03-.04,.07-.08,.1-.12,.05,0,.1-.01,.15-.04,.11-.06,.15-.14,.11-.22-.02,0-.03,0-.03-.03l.03-.03s0,.04,.01,.06c.05,.06,.12,.06,.23,0,.05-.03,.08-.06,.1-.1,.02-.04,.02-.08,0-.1-.05-.07-.13-.08-.25-.01,.02-.02,.04-.05,.06-.08l.12-.04s.08-.06,.1-.1,.02-.08,0-.1c0-.02-.02-.03-.02-.03,0,0-.01,0-.02-.01,.03-.05,.05-.1,.08-.15s.04-.11,.06-.15c.06,.04,.12,.03,.19-.01,.12-.06,.15-.13,.1-.21-.03-.06-.1-.06-.22-.01,.02-.04,.03-.07,.03-.1,.04,0,.08-.01,.14-.04,.1-.06,.13-.13,.08-.19-.04-.06-.11-.06-.21,0v-.12s.09,0,.15-.03c.09-.06,.12-.13,.1-.19-.06-.06-.12-.06-.21,0-.02,0-.05,.03-.08,.07,0-.02,0-.04-.01-.06s-.02-.04-.03-.06c0-.03,0-.05-.01-.07,0-.02-.01-.03-.04-.03l-.07-.11s.02-.01,.03-.01c0,0,.02,0,.04-.01,.08-.06,.11-.12,.08-.17-.02-.03-.04-.04-.08-.04s-.07,0-.1,.03c-.02,0-.04,.03-.07,.06l-.08-.14v-.03l-.03-.03-.1-.15s.06,0,.08-.03c.03-.02,.05-.04,.07-.07,.02-.03,.02-.05,0-.07-.03-.05-.08-.05-.17,0-.02,0-.04,.02-.06,.04l-.22-.36s.06,0,.08-.03c.06-.04,.08-.08,.06-.12-.04-.04-.08-.04-.14,0-.04,.02-.06,.04-.06,.06l-.23-.39s.05,0,.07-.03c.06-.03,.08-.06,.06-.11-.02-.04-.06-.04-.12,0-.02,0-.03,.02-.03,.03,0,0-.01,.02-.02,.03l-.25-.4s.06,0,.08-.03c.06-.02,.08-.05,.04-.08-.02-.04-.05-.04-.1-.01Zm-.81-1.34s.02-.04,.01-.06c0-.02-.02-.02-.06,0-.02,.02-.02,.03-.01,.04,0,.03,.02,.03,.06,.01Zm.03-.36s.02-.03,.01-.04c0-.03-.01-.03-.04,0-.02,.02-.02,.03-.01,.04,0,.03,.01,.03,.04,0Zm.26,.84s.04-.05,.03-.07c-.02-.02-.04-.02-.07,0-.04,.02-.05,.04-.03,.06,0,.04,.02,.04,.07,.01Zm.03-.36s.05-.04,.03-.06-.04-.02-.06,0c-.04,.02-.05,.04-.03,.06,0,.02,.02,.02,.06,0Zm.04-.35s.02-.04,.01-.06c0-.02-.02-.02-.06,0-.03,.03-.03,.05-.01,.06,0,.02,.02,.02,.06,0Zm.22,1.17s.06-.05,.04-.07c-.02-.03-.05-.03-.1,0-.05,.02-.06,.04-.03,.07,0,.03,.04,.03,.08,0Zm.03-.35c.06-.02,.07-.04,.04-.07-.02-.04-.05-.04-.08,0-.04,.02-.05,.04-.03,.07,.02,.02,.04,.02,.07,0Zm.04-.35s.04-.05,.03-.07c-.02-.02-.04-.02-.07,0-.04,.02-.05,.04-.03,.06,0,.03,.03,.03,.07,.01Zm.03-.36s.05-.04,.03-.06c0-.02-.02-.02-.06,0-.04,.02-.05,.04-.03,.06,.02,.02,.04,.02,.06,0Zm.04-.35s.03-.04,.03-.06c-.02-.02-.04-.02-.06,0-.04,.02-.05,.04-.03,.06,0,0,.03,0,.06,0Zm.14,1.45s-.06,.05-.04,.08,.05,.04,.1,0c.04-.04,.05-.06,.04-.08-.04-.03-.07-.03-.1,0Zm.03-.35s-.06,.04-.03,.07c.02,.03,.05,.03,.08,.01,.04-.03,.05-.06,.04-.08-.02-.03-.05-.03-.1,0Zm.04-.35s-.06,.04-.03,.07c.02,.02,.05,.02,.08,0,.04-.02,.05-.04,.03-.07-.02-.02-.05-.02-.08,0Zm.04-.34s-.05,.04-.03,.07c.02,.02,.04,.02,.07,0,.04-.02,.05-.04,.03-.07-.02-.02-.04-.02-.07,0Zm.04-.35s-.05,.04-.03,.06c.02,.02,.04,.02,.07,0,.02-.02,.02-.04,.01-.06,0-.02-.02-.02-.06,0Zm.12,1.84c-.06,.04-.08,.07-.04,.11,.02,.04,.06,.04,.11,0,.06-.04,.07-.07,.04-.1-.02-.05-.06-.05-.11-.01Zm.04-.35c-.06,.04-.07,.07-.04,.1,0,.03,.04,.03,.1,.01,.06-.04,.07-.07,.06-.1-.03-.03-.06-.03-.11-.01Zm.04-.33s-.06,.05-.04,.08c.02,.04,.05,.04,.1,0,.04-.04,.05-.06,.04-.08-.02-.03-.05-.03-.1,0Zm.23,5.27c.11-.07,.15-.15,.11-.24-.02-.04-.06-.05-.11-.05s-.11,.01-.15,.04c-.05,.04-.08,.08-.1,.12s-.03,.08,0,.12c.05,.07,.13,.08,.26,.01Zm-.19-5.62c-.06,.02-.07,.04-.04,.07,.02,.03,.05,.03,.08,.01,.04-.03,.05-.06,.04-.08-.02-.04-.05-.04-.08,0Zm.03-.35s-.06,.04-.03,.07c0,.03,.04,.03,.08,0,.04-.02,.05-.04,.03-.07-.02,0-.05,0-.08,0Zm.04-.35s-.05,.04-.03,.07c.02,.02,.04,.02,.07,0,.04-.02,.05-.04,.03-.07,0-.02-.02-.02-.07,0Zm.17,2.31c.06-.04,.08-.08,.06-.12-.02-.04-.06-.04-.12,0-.06,.03-.09,.07-.07,.12,.03,.03,.07,.03,.14,0Zm-.04-.47c-.06,.04-.08,.07-.04,.11,.02,.05,.06,.05,.11,.01,.06-.05,.08-.08,.06-.11-.02-.05-.06-.05-.12-.01Zm.04-.35c-.06,.04-.08,.07-.04,.11,.02,.04,.06,.04,.11,0,.06-.04,.07-.07,.04-.1-.02-.04-.06-.04-.11-.01Zm.04-.33s-.06,.05-.04,.08c.02,.04,.05,.04,.1,.01,.06-.04,.07-.07,.06-.1-.02-.04-.06-.04-.11,0Zm.04-.35s-.06,.05-.04,.08c.02,.04,.05,.04,.1,0,.05-.02,.06-.05,.04-.08-.02-.03-.05-.03-.1,0Zm.23,5.27s.08-.08,.1-.12,.03-.08,0-.12c-.06-.07-.14-.07-.26,0-.11,.06-.14,.14-.1,.22,.02,.04,.05,.05,.1,.05s.1-.01,.15-.04Zm-.19-5.62s-.06,.05-.04,.08c.02,.02,.05,.02,.08,0,.04-.03,.05-.06,.04-.08-.03-.03-.06-.03-.08,0Zm.04-.35c-.06,.02-.07,.04-.04,.07,.02,.04,.05,.04,.08,0,.04-.02,.05-.04,.03-.07-.02-.02-.04-.02-.07,0Zm.12,2.66c.07-.05,.1-.09,.07-.14-.04-.05-.09-.05-.15,0-.03,.02-.05,.04-.07,.07-.02,.03-.02,.05,0,.07,.04,.06,.09,.06,.15,0Zm-.08-3.01s-.04,.04-.04,.07c.02,.02,.04,.02,.07,0,.03,0,.04-.03,.04-.07-.02-.02-.04-.02-.07,0Zm.12,2.66c.06-.05,.08-.09,.06-.14-.03-.05-.07-.05-.14,0-.07,.04-.1,.08-.07,.12,.03,.05,.08,.05,.15,.01Zm.03-.36c.06-.04,.08-.08,.06-.12-.02-.04-.06-.04-.12,0-.07,.04-.09,.08-.06,.12,.02,.04,.06,.04,.12,0Zm-.03-.47c-.07,.04-.09,.07-.06,.11,.02,.05,.06,.05,.12,.01,.06-.04,.07-.07,.06-.11-.03-.05-.07-.05-.12-.01Zm.03-.33c-.06,.02-.07,.05-.04,.1,.02,.04,.06,.04,.11,0,.06-.04,.07-.07,.06-.1-.03-.03-.07-.03-.12,0Zm.04-.35s-.06,.06-.04,.1c.02,.04,.06,.04,.11,0,.05-.03,.06-.06,.04-.1-.02-.04-.06-.04-.11,0Zm.04-.35s-.06,.06-.04,.08c.02,.04,.05,.04,.1,0,.05-.02,.06-.05,.04-.08-.02-.03-.05-.03-.1,0Zm.14,2.68s.06-.04,.08-.08c.02-.03,.02-.06,0-.08-.04-.06-.1-.06-.18-.01-.07,.06-.1,.11-.07,.17,.04,.06,.09,.06,.17,0Zm.1,2.6s.08-.06,.1-.11,.03-.09,0-.12c-.06-.07-.14-.07-.25,0-.06,.03-.09,.06-.11,.11s-.02,.08,0,.11c.05,.07,.13,.08,.25,.01Zm-.19-5.62s-.05,.06-.04,.08c.02,.02,.05,.02,.1,0,.03-.03,.04-.06,.03-.08-.02-.02-.05-.02-.08,0Zm.04,2.53s-.05,.04-.07,.07c-.02,.03-.02,.05,0,.07,.03,.05,.08,.05,.17,.01,.08-.05,.11-.1,.07-.15-.03-.05-.08-.05-.17,0Zm.04,2.51s-.08,.06-.1,.1-.02,.08,0,.12c.02,.03,.05,.04,.1,.05,.05,0,.09-.01,.14-.05,.05-.03,.08-.06,.1-.1,.02-.04,.02-.08,0-.1-.05-.07-.13-.08-.25-.01Zm0-2.86c-.06,.04-.09,.08-.07,.14,.04,.06,.09,.06,.15,0,.08-.04,.11-.08,.07-.14-.03-.05-.08-.05-.15,0Zm.04,2.51c-.1,.06-.13,.13-.1,.21,.05,.07,.12,.08,.23,.01,.12-.06,.15-.13,.1-.21-.05-.07-.12-.08-.23-.01Zm0-2.86c-.06,.06-.08,.1-.06,.12,.02,.05,.06,.05,.14,.01,.06-.05,.08-.09,.06-.14-.02-.04-.06-.04-.14,0Zm.04-.35c-.06,.05-.08,.09-.06,.12,0,.02,.03,.03,.06,.03s.05,0,.07-.03c.06-.04,.09-.07,.07-.11-.03-.04-.07-.04-.14-.01Zm.04-.35c-.06,.04-.07,.08-.06,.12,.02,.04,.06,.04,.12,0,.06-.04,.07-.07,.06-.11-.03-.05-.07-.05-.12-.01Zm.04-.33c-.06,.03-.07,.06-.06,.1,.02,.04,.06,.04,.11,0,.06-.03,.07-.06,.06-.1-.02-.04-.06-.04-.11,0Zm.15,2.69s.06-.05,.08-.08c.02-.04,.02-.06,0-.08-.05-.06-.11-.06-.19-.01-.09,.05-.12,.11-.08,.18,.03,.05,.09,.05,.19,0Zm-.12-3.04s-.06,.06-.04,.1c.02,.04,.06,.04,.11,0,.05-.03,.06-.06,.04-.1-.02-.04-.06-.04-.11,0Zm.06,2.51s-.08,.05-.09,.08-.01,.06,0,.08c.02,.03,.04,.04,.08,.04s.07,0,.1-.03c.04-.02,.06-.05,.08-.08,.02-.04,.02-.06,0-.08-.02-.03-.04-.04-.08-.04s-.07,0-.1,.03Zm.04-.33s-.06,.04-.08,.08-.02,.06,0,.08c.04,.06,.1,.06,.18,0,.08-.05,.11-.1,.07-.15-.04-.06-.09-.06-.17,0Zm.18,2.75s.08-.06,.1-.11,.03-.08,0-.11c-.05-.07-.13-.08-.25-.01-.05,.03-.08,.06-.1,.11-.02,.05-.03,.08,0,.11,.05,.07,.13,.08,.25,.01Zm-.06-2.94c.08-.05,.11-.1,.07-.15-.03-.05-.08-.05-.17,0-.06,.05-.09,.09-.07,.14,.04,.06,.09,.07,.17,.01Zm.1,2.6s.08-.08,.1-.12c.02-.04,.02-.08,0-.1-.05-.07-.12-.08-.23-.01-.12,.06-.16,.14-.11,.22,.06,.07,.14,.08,.25,.01Zm-.1-.58c-.11,.06-.15,.13-.11,.21,.05,.07,.12,.08,.23,.01,.12-.06,.15-.13,.1-.21-.02-.03-.05-.04-.09-.05-.04,0-.09,0-.13,.03Zm-.06-2.51c-.06,.05-.08,.09-.06,.14,.02,.06,.07,.06,.15,0,.07-.04,.09-.08,.06-.14-.02-.05-.07-.05-.15,0Zm.08,2.18c-.1,.06-.13,.12-.1,.19,.05,.06,.12,.06,.23,.01,.1-.07,.13-.14,.08-.21-.04-.06-.11-.06-.22,0Zm-.04-2.53c-.06,.06-.08,.1-.06,.12,.02,.05,.06,.05,.14,.01,.06-.06,.08-.1,.06-.12-.02-.05-.06-.05-.14-.01Zm.04-.35c-.06,.06-.08,.1-.06,.12,.02,.06,.06,.06,.14,0,.06-.04,.07-.07,.06-.11-.03-.04-.07-.04-.14-.01Zm.04,2.53s-.08,.05-.09,.09c-.01,.04-.01,.08,0,.1,.02,.03,.05,.04,.08,.04s.08-.01,.12-.04c.09-.06,.12-.13,.1-.19-.05-.06-.12-.06-.22,0Zm.04-.35c-.09,.05-.12,.11-.08,.18,.02,.03,.05,.04,.08,.04s.07,0,.11-.03c.1-.06,.13-.12,.1-.18-.06-.06-.12-.07-.21-.01Zm.04-.34c-.08,.06-.11,.12-.08,.18,.04,.06,.1,.06,.19,0,.04-.02,.06-.05,.08-.08,.02-.04,.02-.06,0-.08-.02-.03-.05-.04-.08-.04s-.07,0-.11,.03Zm.14-.17c.09-.05,.12-.1,.08-.17-.02-.03-.04-.04-.08-.04s-.07,0-.1,.03c-.08,.06-.11,.12-.08,.17,.02,.03,.04,.04,.08,.04s.07,0,.1-.03Zm-.06-.51c-.07,.05-.1,.1-.08,.15,.04,.06,.1,.06,.18,0,.08-.05,.11-.1,.07-.15-.03-.05-.08-.05-.17,0Zm.18,2.75c.06-.03,.09-.06,.11-.11,.02-.05,.02-.08,0-.11-.05-.07-.13-.08-.25-.01-.05,.03-.08,.06-.1,.11-.02,.05-.03,.09,0,.12,.06,.07,.14,.07,.25,0Zm-.1-.58s-.08,.06-.1,.11c-.02,.05-.03,.08,0,.11,.05,.07,.13,.08,.25,.01,.11-.08,.14-.16,.1-.22-.02-.04-.05-.06-.1-.06s-.09,.01-.14,.04Zm-.04-2.51c-.07,.05-.1,.09-.07,.14,0,.02,.03,.03,.06,.03,.03,0,.06,0,.09-.02,.08-.05,.11-.1,.07-.15-.04-.05-.09-.05-.15,0Zm.21,2.39c.12-.06,.15-.13,.1-.21-.02-.03-.05-.04-.09-.05-.04,0-.09,0-.13,.03-.11,.06-.15,.14-.11,.22,.02,.03,.05,.04,.1,.04s.09-.01,.14-.04Zm-.18-2.73c-.06,.05-.08,.09-.06,.14,.02,.06,.07,.06,.15,0,.06-.04,.09-.08,.07-.14-.05-.04-.1-.04-.17,0Zm.22,2.39c.1-.06,.13-.13,.1-.21-.05-.06-.12-.06-.22,0-.11,.06-.14,.13-.1,.19,.04,.07,.11,.08,.22,.01Zm-.1-.55c-.09,.06-.12,.13-.08,.19,.02,.03,.05,.04,.08,.04s.08-.01,.12-.04c.05-.02,.08-.05,.1-.09,.02-.04,.02-.07,0-.09-.06-.07-.13-.08-.22-.01Zm.04-.35s-.06,.06-.08,.1c-.02,.04-.02,.06,0,.08,.02,.03,.05,.04,.08,.04s.08,0,.12-.03c.04-.03,.06-.06,.08-.1,.02-.04,.02-.06,0-.08-.02-.03-.05-.04-.08-.04s-.08,0-.12,.03Zm.15-.17c.09-.05,.12-.1,.08-.17-.03-.06-.09-.06-.19-.01-.08,.06-.11,.12-.08,.18,.02,.02,.05,.03,.08,.03,.04,0,.07,0,.11-.03Zm-.07-.51s-.06,.04-.08,.08-.02,.06,0,.08c.03,.06,.09,.06,.19,.01,.08-.06,.11-.11,.07-.17-.02-.02-.04-.03-.08-.03-.03,0-.07,0-.1,.03Zm.04-.35c-.08,.05-.11,.1-.07,.15,.03,.05,.08,.05,.17,0,.08-.05,.11-.1,.07-.15-.03-.05-.08-.05-.17,0Zm.19,2.73c.12-.06,.15-.13,.1-.21-.02-.03-.05-.04-.09-.05-.04,0-.09,0-.13,.03-.11,.06-.15,.14-.11,.22,.02,.03,.05,.04,.1,.04s.09-.01,.14-.04Zm.03-.33c.11-.06,.14-.14,.1-.22-.04-.07-.12-.08-.23-.01-.11,.07-.15,.15-.11,.22,.05,.07,.13,.08,.25,.01Zm-.1-.57c-.11,.06-.14,.13-.1,.21,.02,.03,.05,.04,.09,.04s.08-.01,.13-.04c.1-.06,.14-.13,.11-.21-.06-.07-.13-.07-.23,0Zm.17-.14c.09-.06,.12-.13,.1-.21-.05-.06-.12-.06-.22,0-.11,.06-.14,.13-.1,.19,.02,.03,.05,.04,.09,.05,.04,0,.08,0,.13-.03Zm-.08-.55c-.1,.06-.13,.13-.1,.19,.02,.03,.05,.04,.08,.04s.08-.01,.12-.04c.1-.05,.13-.11,.1-.18-.06-.06-.12-.07-.21-.01Zm.03-.35s-.06,.06-.08,.1c-.02,.04-.02,.06,0,.08,.02,.03,.05,.04,.08,.04s.08,0,.12-.03c.08-.06,.11-.12,.08-.18-.02-.03-.05-.04-.08-.04s-.08,0-.12,.03Zm.04-.33c-.08,.06-.11,.11-.08,.17,.05,.06,.11,.06,.19,0,.09-.05,.12-.1,.08-.17-.04-.06-.1-.06-.19,0Zm.3,1.71c.11-.06,.15-.14,.11-.22-.06-.07-.14-.07-.25,0-.12,.06-.15,.13-.1,.21,.02,.04,.05,.06,.1,.06s.09-.01,.14-.04Zm-.1-.57c-.12,.06-.15,.13-.1,.21,.02,.03,.05,.04,.1,.04s.09-.01,.14-.04c.09-.06,.12-.13,.1-.21-.05-.06-.12-.06-.23,0Zm.04-.35c-.1,.06-.13,.13-.1,.19,.05,.07,.12,.08,.22,.01,.09-.06,.12-.13,.1-.19-.05-.07-.12-.08-.22-.01Zm.15-.14c.1-.06,.13-.12,.1-.19-.02-.03-.05-.04-.08-.04s-.08,0-.12,.03c-.1,.06-.13,.13-.1,.19,.05,.06,.12,.06,.21,.01Zm-.07-.55c-.1,.06-.13,.13-.1,.19,.06,.06,.12,.06,.21,0,.1-.06,.13-.11,.08-.18-.02-.03-.05-.04-.08-.04s-.07,0-.11,.03Zm.04-.33s-.08,.05-.09,.08c-.01,.04-.01,.06,0,.08,.02,.03,.04,.04,.08,.04s.07,0,.1-.03c.09-.06,.12-.12,.08-.18-.02-.02-.04-.03-.08-.03-.03,0-.07,0-.1,.03Zm.29,1.71c.12-.06,.16-.14,.11-.22-.06-.07-.14-.07-.25,0-.12,.06-.15,.13-.1,.21,.05,.07,.12,.08,.23,.01Zm.04-.35s.08-.06,.1-.1,.02-.08,0-.12c-.05-.06-.12-.06-.23,0-.05,.03-.08,.06-.1,.1-.02,.04-.02,.08,0,.1,.06,.07,.13,.08,.23,.01Zm-.1-.57c-.09,.06-.12,.13-.1,.21,.05,.06,.12,.06,.22,0,.11-.06,.14-.13,.1-.19-.02-.03-.05-.04-.09-.05-.04,0-.09,0-.13,.03Zm.17-.14c.1-.06,.13-.13,.08-.19-.02-.03-.05-.04-.08-.04s-.08,0-.12,.03c-.1,.06-.13,.13-.1,.19,.05,.06,.12,.07,.22,.01Zm-.08-.54c-.1,.06-.13,.12-.08,.18,.03,.06,.09,.06,.19,0,.1-.06,.13-.12,.08-.18-.04-.06-.1-.06-.19,0Zm.04-.35s-.08,.05-.09,.08c-.01,.04-.01,.06,0,.08,.03,.06,.09,.06,.19,.01,.08-.06,.11-.12,.08-.18-.06-.06-.12-.06-.19,0Zm.04-.34c-.09,.05-.12,.1-.08,.17,.04,.06,.1,.06,.18,0,.08-.06,.11-.11,.08-.17-.04-.06-.1-.06-.18,0Zm.25,2.06c.12-.06,.16-.14,.11-.22-.06-.07-.13-.07-.23,0-.12,.06-.16,.14-.11,.22,.02,.03,.05,.04,.1,.04s.09-.01,.14-.04Zm.04-.35c.12-.06,.15-.13,.1-.21-.02-.04-.05-.06-.1-.06s-.09,.01-.14,.04c-.1,.06-.13,.13-.1,.21,.06,.07,.13,.08,.23,.01Zm-.1-.57c-.1,.06-.13,.13-.1,.21,.05,.06,.12,.06,.22,0,.11-.06,.14-.13,.1-.19-.04-.07-.11-.08-.22-.01Zm.17-.14c.1-.06,.13-.13,.08-.19-.02-.03-.05-.04-.08-.04s-.08,0-.12,.03c-.1,.06-.13,.13-.08,.19,.02,.03,.05,.04,.08,.04s.08,0,.12-.03Zm-.08-.54c-.1,.06-.13,.12-.08,.18,.02,.03,.05,.04,.08,.04s.07-.01,.11-.04c.1-.05,.13-.11,.1-.18-.05-.06-.12-.06-.21,0Zm.04-.35s-.08,.05-.09,.08-.01,.06,0,.08c.03,.06,.09,.06,.19,.01,.04-.02,.06-.05,.08-.08,.02-.04,.02-.07,0-.1-.02-.02-.05-.03-.08-.03s-.07,0-.11,.03Zm.04-.35s-.06,.05-.08,.08-.02,.06,0,.08,.04,.03,.08,.03c.03,0,.07,0,.1-.03,.04-.02,.06-.04,.08-.08,.02-.03,.02-.06,0-.08-.02-.03-.04-.04-.08-.04s-.07,0-.1,.03Zm.04-.35c-.08,.06-.11,.11-.08,.17,.04,.06,.1,.06,.18,0,.08-.05,.11-.1,.07-.15s-.09-.06-.17-.01Zm.22,2.4c.12-.06,.15-.13,.1-.21-.05-.07-.12-.08-.24-.01-.12,.06-.16,.14-.11,.22,.05,.06,.13,.06,.25,0Zm-.18-2.73c-.08,.04-.11,.08-.07,.14,0,.02,.03,.03,.06,.03s.06,0,.09-.03c.08-.04,.11-.08,.07-.14-.04-.05-.09-.05-.15,0Zm.21,2.39c.12-.06,.15-.13,.1-.21-.02-.04-.05-.06-.09-.06s-.09,.01-.13,.04c-.11,.06-.15,.13-.11,.21,.02,.04,.05,.06,.1,.06s.09-.01,.14-.04Zm-.1-.57s-.08,.06-.09,.1-.01,.08,0,.1c.04,.06,.11,.06,.22,0,.05-.02,.08-.05,.09-.09s.01-.08,0-.1c-.03-.06-.1-.06-.22-.01Zm.04-.33c-.1,.06-.13,.12-.08,.18,.04,.07,.11,.08,.21,.01,.09-.06,.12-.13,.1-.19-.05-.06-.12-.06-.22,0Zm.04-.34c-.09,.05-.12,.11-.08,.18,.02,.03,.05,.04,.08,.04s.08-.01,.12-.04c.04-.02,.06-.05,.08-.08,.02-.04,.02-.07,0-.1-.02-.02-.04-.03-.08-.03-.04,0-.08,0-.12,.03Zm.15-.17s.06-.05,.08-.08c.02-.04,.02-.06,0-.08-.03-.06-.09-.06-.19-.01-.04,.02-.06,.05-.08,.08-.02,.04-.02,.06,0,.08,.02,.03,.05,.04,.08,.04s.07,0,.11-.03Zm-.07-.52s-.06,.05-.08,.08c-.02,.04-.02,.06,0,.08,.02,.03,.04,.04,.08,.04s.07,0,.1-.03c.09-.06,.12-.11,.08-.17-.02-.03-.04-.04-.08-.04-.03,0-.07,0-.1,.03Zm.04-.35c-.07,.05-.1,.1-.07,.17,0,.02,.03,.03,.06,.03,.03,0,.07,0,.1-.03,.08-.05,.11-.1,.07-.15-.04-.06-.09-.06-.17-.01Zm.04-.33c-.08,.04-.11,.08-.07,.14,.03,.05,.08,.05,.15,.01,.08-.05,.11-.1,.07-.15,0-.02-.03-.03-.06-.03s-.06,0-.09,.03Zm.18,2.73c.12-.06,.15-.13,.1-.21-.02-.04-.05-.06-.1-.06s-.09,.01-.14,.04c-.11,.06-.15,.14-.11,.22,.05,.07,.14,.07,.25,0Zm-.14-3.08c-.08,.04-.11,.08-.07,.14,.03,.05,.08,.05,.15,0,.06-.04,.09-.08,.07-.14-.04-.05-.09-.05-.15,0Zm.17,2.73c.11-.06,.15-.13,.11-.21-.06-.07-.13-.08-.23-.01-.12,.06-.15,.13-.1,.21,.02,.04,.05,.06,.09,.06s.08-.01,.13-.04Zm.04-.35c.1-.06,.13-.13,.1-.21-.05-.06-.12-.07-.22-.01-.12,.06-.15,.13-.1,.21,.03,.06,.1,.06,.22,.01Zm-.08-.55s-.08,.05-.1,.09c-.02,.04-.02,.07,0,.09,.04,.07,.11,.08,.21,.01,.09-.06,.12-.13,.1-.19-.05-.06-.12-.06-.21,0Zm.03-.35s-.06,.05-.08,.08c-.02,.04-.02,.07,0,.1,.02,.03,.04,.04,.08,.04s.08,0,.12-.03c.08-.06,.11-.13,.08-.19-.02-.02-.05-.03-.08-.03-.04,0-.08,0-.12,.03Zm.04-.35s-.06,.05-.08,.08c-.02,.04-.02,.07,0,.1,.04,.05,.11,.05,.19,0,.09-.05,.12-.1,.08-.17-.03-.06-.09-.06-.19-.01Zm.04-.34s-.06,.05-.08,.08c-.02,.04-.02,.06,0,.08,.04,.06,.1,.06,.19,.01,.08-.06,.11-.11,.07-.17-.02-.03-.04-.04-.08-.04-.03,0-.07,0-.1,.03Zm.04-.33c-.08,.05-.11,.1-.07,.15,.03,.05,.08,.05,.17,0,.08-.05,.11-.1,.07-.15-.03-.05-.08-.05-.16,0Zm.04-.35c-.07,.05-.1,.09-.07,.14,.04,.06,.09,.06,.16,.01,.06-.05,.09-.1,.07-.15-.04-.06-.09-.06-.17,0Zm.04-.35c-.07,.05-.1,.09-.07,.14,.04,.06,.09,.06,.15,0,.03-.02,.05-.04,.07-.07,.02-.03,.02-.05,0-.07-.04-.05-.09-.05-.15,0Zm.04-.35c-.06,.05-.09,.09-.07,.12,.03,.05,.07,.05,.14,.01,.06-.04,.09-.08,.07-.12-.03-.04-.07-.04-.14-.01Zm.17,2.73c.1-.06,.13-.13,.1-.21-.05-.06-.12-.06-.22,0-.04,.02-.08,.05-.1,.09s-.02,.08,0,.1c.02,.03,.05,.04,.09,.04s.08,0,.13-.03Zm.03-.36c.1-.06,.13-.12,.1-.19-.04-.06-.11-.06-.21,0-.1,.06-.13,.13-.1,.19,.05,.06,.12,.06,.21,0Zm.04-.34c.09-.06,.12-.12,.08-.18-.02-.03-.05-.04-.08-.04-.04,0-.07,0-.11,.03-.09,.06-.12,.12-.1,.18,.05,.06,.12,.06,.21,.01Zm-.08-.54c-.08,.06-.11,.12-.07,.18,.02,.02,.04,.03,.08,.03,.03,0,.07,0,.1-.03,.09-.05,.12-.1,.08-.17-.03-.06-.09-.06-.19-.01Zm.04-.35c-.07,.06-.1,.12-.07,.17,.02,.03,.04,.04,.08,.04,.03,0,.07,0,.1-.03s.06-.05,.08-.08c.01-.04,.01-.06,0-.08-.04-.06-.1-.06-.18-.01Zm.04-.33c-.08,.05-.11,.1-.07,.15,.03,.05,.08,.05,.17,0,.04-.02,.06-.04,.08-.08,.02-.03,.02-.06,0-.08-.04-.06-.1-.06-.18,0Zm.04-.35c-.07,.05-.1,.09-.07,.14,.04,.06,.09,.06,.17,.01,.07-.06,.1-.11,.07-.15-.03-.05-.08-.05-.16,0Zm.04-.35c-.07,.06-.1,.1-.07,.14,.04,.06,.09,.06,.15,0,.08-.04,.11-.08,.07-.14-.05-.05-.1-.05-.15,0Zm.04-.35c-.06,.05-.09,.09-.07,.14,.04,.04,.09,.04,.15,0,.03-.02,.05-.04,.06-.06s.01-.04,0-.06c-.03-.04-.07-.04-.14-.01Zm.21,2.37s.08-.05,.09-.09,.01-.07,0-.09c-.04-.07-.11-.08-.21-.01-.1,.06-.13,.13-.1,.19,.05,.06,.12,.06,.22,0Zm.03-.35c.1-.07,.13-.13,.08-.18-.03-.06-.09-.06-.19-.01-.1,.06-.13,.12-.1,.18,.05,.06,.12,.06,.21,.01Zm.03-.36s.08-.05,.09-.08c.01-.04,.01-.06,0-.08-.02-.03-.04-.04-.08-.04-.03,0-.07,0-.1,.03-.08,.06-.11,.12-.08,.18,.02,.02,.04,.03,.08,.03,.03,0,.07,0,.1-.03Zm-.07-.51c-.08,.05-.11,.1-.07,.15,.02,.03,.04,.04,.08,.04,.03,0,.07,0,.1-.03,.04-.02,.06-.05,.08-.08,.02-.04,.02-.06,0-.08-.04-.06-.1-.06-.19,0Zm.04-.35c-.08,.05-.11,.1-.07,.15s.09,.06,.17,0c.04-.02,.06-.04,.08-.08s.02-.06,0-.08c-.04-.06-.1-.06-.18,0Zm.04-.35c-.07,.06-.1,.11-.07,.15,.03,.05,.08,.05,.17,0,.07-.06,.1-.11,.07-.15-.03-.05-.08-.05-.17,0Zm.04-.34c-.06,.05-.09,.09-.07,.14,.03,.05,.08,.05,.15,.01,.08-.06,.11-.1,.07-.14-.03-.05-.08-.05-.15-.01Zm.28,1.68c.1-.05,.13-.11,.1-.18-.04-.06-.12-.06-.21-.01-.04,.03-.07,.06-.09,.1-.01,.04,0,.06,0,.08,.04,.07,.1,.08,.19,.01Zm.04-.35c.08-.06,.11-.12,.08-.18-.05-.06-.11-.06-.19,0-.09,.05-.12,.1-.08,.17,.03,.06,.09,.06,.19,.01Zm-.07-.52c-.09,.05-.12,.1-.08,.17,.04,.06,.1,.06,.18,0,.08-.06,.11-.11,.08-.17-.04-.06-.1-.06-.18,0Zm.04-.35s-.06,.04-.08,.08c-.02,.03-.02,.06,0,.08,.04,.06,.1,.06,.18,.01,.07-.06,.1-.11,.07-.17-.04-.06-.09-.06-.17,0Zm.03-.35c-.06,.05-.09,.1-.07,.15,.03,.05,.08,.05,.17,0,.07-.05,.1-.09,.07-.14-.04-.06-.09-.06-.17-.01Zm.04-.35c-.06,.05-.09,.09-.07,.14,.03,.05,.08,.05,.17,.01,.06-.05,.08-.09,.05-.14-.02-.05-.07-.05-.15-.01Zm.32,1.34c.08-.06,.11-.12,.08-.18-.02-.02-.04-.03-.08-.03-.04,0-.07,0-.11,.03-.04,.02-.06,.05-.08,.08s-.02,.06,0,.08c.03,.06,.09,.06,.19,.01Zm-.07-.52c-.08,.06-.11,.11-.08,.17,.04,.06,.1,.06,.18,0,.09-.05,.12-.1,.08-.17-.04-.06-.1-.06-.18,0Zm.04-.35s-.06,.04-.08,.08c-.02,.03-.02,.06,0,.08,.04,.06,.1,.06,.18,.01,.08-.05,.11-.1,.07-.15-.03-.06-.08-.06-.17-.01Zm.04-.34c-.08,.05-.11,.1-.07,.15,0,.02,.03,.03,.06,.03,.03,0,.06,0,.09-.03,.07-.05,.1-.09,.07-.14s-.08-.05-.15-.01Zm.32,.12c-.08,.05-.11,.1-.07,.15,.03,.06,.08,.06,.17,.01,.08-.05,.11-.1,.07-.15-.03-.06-.08-.06-.16-.01Z"/></svg>