<?xml version="1.0" encoding="UTF-8"?><svg id="a" xmlns="http://www.w3.org/2000/svg" viewBox="0 0 136.96 136.96"><defs><style>.b{fill:#fff;}.c{fill:#4338ca;}</style></defs><circle class="b" cx="68.48" cy="68.48" r="68.48"/><path class="c" d="M104.88,116.54h-19.8l-16.42-27.19-16.29,27.19h-19.8l11.4-18.8,35.22-23.56,13.79-8.15c-2.17,1.5-3.88,3.34-5.14,5.51-1.09,1.84-1.84,4.09-2.26,6.77-.42,2.67,.17,5.76,1.75,9.27l17.54,28.95ZM43.6,46.61c-.33,.17-.5,.38-.5,.63l-10.4-17.42h.5c-.08,.08-.08,.17,0,.25h.25l.25-.25h18.8l7.64,13.03c-.25-.17-.54-.13-.88,.13-.5,.25-.67,.59-.5,1,.17,.33,.54,.33,1.13,0,.33-.25,.5-.5,.5-.75l2.26,3.76c-.17-.08-.46-.04-.88,.12-.59,.42-.75,.84-.5,1.25,.25,.25,.67,.25,1.25,0,.25-.08,.46-.29,.63-.63l.88,1.5c0,.08,.04,.17,.13,.25,0,.08,.02,.12,.06,.12s.06,.04,.06,.13l.88,1.38c-.17,0-.42,.08-.75,.25-.75,.42-.96,.88-.63,1.38,.33,.5,.79,.5,1.38,0,.25-.08,.46-.29,.63-.63l.75,1.25c0,.25,.04,.42,.13,.5,0,.17,.13,.25,.38,.25l.63,1.25c-.33,0-.59,.08-.75,.25-.33,.17-.56,.4-.69,.69-.13,.29-.11,.56,.06,.81,.33,.5,.88,.5,1.63,0,.17-.08,.27-.17,.31-.25,.04-.08,.1-.17,.19-.25l.38,.38,1-1.63c.5,.17,.96,.08,1.38-.25,.75-.5,1-1,.75-1.5-.25-.25-.54-.33-.88-.25l2.13-3.63v.13c.17,.25,.39,.38,.69,.38s.61-.08,.94-.25c.67-.5,.88-.96,.63-1.38-.34-.5-.84-.54-1.5-.12l1-1.63,.12-.13c.25-.17,.46-.38,.63-.63,.17-.25,.17-.46,0-.63l2.26-3.63c.17,0,.42-.08,.75-.25,.58-.42,.75-.83,.5-1.25l-.25-.25,2.13-3.51c.42,.17,.79,.13,1.13-.12,.58-.42,.79-.83,.62-1.25-.17-.17-.42-.25-.75-.25l2.51-4.14v.38c.25,.42,.67,.42,1.25,0,.67-.33,.83-.67,.5-1-.17-.42-.59-.46-1.25-.13,0,.08-.02,.13-.06,.13s-.06,.04-.06,.12l.25-.5h5.51c0,.33,.04,.54,.12,.63,.25,.42,.67,.42,1.25,0,.17-.08,.33-.29,.5-.63h4.64c.17,.08,.38,.08,.63,0h2.13c-.34,.42-.38,.75-.12,1,.33,.5,.79,.5,1.38,0,.5-.25,.75-.58,.75-1h3.01l-.38,.63c-.42-.17-.84-.13-1.25,.13-.67,.42-.88,.92-.62,1.5,.17,.17,.42,.25,.75,.25l-2.13,3.38c-.34-.5-.88-.5-1.63,0-.75,.5-1,1-.75,1.5,.25,.42,.71,.46,1.38,.13l-.75,1.38c-.08,0-.17,.04-.25,.13-.33,.17-.59,.42-.75,.75-.17,.33-.17,.59,0,.75l-1.88,3.26c-.17,0-.5,.08-1,.25-.92,.59-1.17,1.17-.75,1.75,0,.08,.13,.17,.38,.25l-1.75,2.88c-.42-.17-.92-.08-1.5,.25-.92,.59-1.17,1.17-.75,1.75,.08,.25,.33,.38,.75,.38l-.75,1.25c-.34,.33-.54,.67-.63,1l-.38,.63c-.42-.42-1.04-.38-1.88,.13-.92,.59-1.21,1.17-.88,1.75,.25,.42,.75,.54,1.5,.38l-.5,.75c-.17,0-.33,.08-.5,.25-.42,.25-.71,.54-.88,.88-.17,.33-.17,.67,0,1l-.12,.5c-.08-.08-.12-.21-.12-.38-.5-.58-1.21-.63-2.13-.13-1,.59-1.3,1.25-.88,2.01,.17,.25,.44,.38,.81,.38s.77-.13,1.19-.38h.12l-.5,.75c-.42,0-.79,.12-1.13,.38-1,.59-1.3,1.25-.88,2l.38,.38-1.38,2.38c-.5-.17-1.09-.04-1.75,.38-.42,.25-.73,.59-.94,1-.21,.42-.23,.75-.06,1,.08,.17,.29,.33,.62,.5l-.5,.25c0-.33-.04-.58-.12-.75-.5-.67-1.25-.67-2.26,0-1.09,.59-1.42,1.25-1,2.01,.08,.17,.33,.33,.75,.5l-.75,.5c.17-.42,.17-.75,0-1-.17-.33-.48-.5-.94-.5s-.9,.17-1.32,.5c-1.17,.58-1.5,1.25-1,2,.08,.33,.42,.5,1,.5l-1.13,.75c.25-.33,.29-.75,.12-1.25-.42-.67-1.21-.71-2.38-.12-1,.75-1.3,1.46-.88,2.13,.25,.42,.71,.54,1.38,.38l-2.01,1.38c.75-.58,.96-1.17,.63-1.75-.42-.67-1.21-.71-2.38-.12-1,.67-1.34,1.38-1,2.13,.5,.67,1.21,.71,2.13,.12l-.88,.63c-.08,0-.29,.08-.63,.25-.25,.17-.46,.38-.63,.63l-1.5,1c-.42,0-.79,.13-1.13,.38-.5,.33-.79,.67-.88,1l-1,.63c-.42-.17-.88-.04-1.38,.38-.42,.25-.79,.67-1.13,1.25l-.5,.38c-.59-.17-1.13-.04-1.63,.38-.75,.42-1.13,.92-1.13,1.5l-.25,.12c-.67-.17-1.3-.08-1.88,.25-.84,.58-1.25,1.17-1.25,1.75v.13c-.25-.17-.56-.23-.94-.19-.38,.04-.73,.15-1.07,.31-.84,.5-1.25,1.13-1.25,1.88-.59-.42-1.3-.38-2.13,.12-.75,.5-1.13,1.13-1.13,1.88-.59-.42-1.3-.38-2.13,.13-.92,.58-1.3,1.17-1.13,1.75-.67-.33-1.38-.25-2.13,.25-.92,.58-1.3,1.17-1.13,1.75-.17-.08-.46-.12-.88-.12,.42-.42,.81-.79,1.19-1.13,.38-.33,.77-.71,1.19-1.13,.42,.17,.83,.04,1.25-.38,.92-.5,1.29-1.13,1.13-1.88,.17,.25,.46,.38,.88,.38s.83-.12,1.25-.38c1.08-.67,1.42-1.38,1-2.13-.08-.17-.33-.33-.75-.5,.42-.42,.77-.79,1.07-1.13,.29-.33,.6-.71,.94-1.13,.42,0,.88-.13,1.38-.38,1-.58,1.34-1.25,1-2.01-.17,0-.25-.08-.25-.25l.25-.25c0,.17,.04,.33,.13,.5,.42,.59,1.13,.59,2.13,0,.42-.25,.73-.56,.94-.94,.21-.38,.23-.69,.06-.94-.42-.67-1.17-.71-2.26-.12,.17-.17,.33-.42,.5-.75l1.13-.38c.42-.25,.71-.56,.88-.94,.17-.38,.17-.69,0-.94-.08-.17-.15-.25-.19-.25s-.11-.04-.19-.13c.25-.42,.48-.88,.69-1.38,.21-.5,.4-.96,.56-1.38,.5,.33,1.08,.29,1.75-.12,1.08-.58,1.38-1.21,.88-1.88-.25-.5-.92-.54-2.01-.13,.17-.33,.25-.63,.25-.88,.33,0,.75-.12,1.25-.38,.92-.58,1.17-1.17,.75-1.75-.33-.58-.96-.58-1.88,0v-1.13c.33,.08,.79,0,1.38-.25,.83-.58,1.13-1.17,.88-1.75-.5-.5-1.13-.5-1.88,0-.17,.08-.42,.29-.75,.63,0-.17-.04-.35-.12-.56-.08-.21-.17-.4-.25-.56,0-.25-.04-.46-.12-.63,0-.17-.13-.25-.38-.25l-.63-1c.08-.08,.17-.12,.25-.12s.21-.04,.38-.13c.75-.58,1-1.08,.75-1.5-.17-.25-.4-.38-.69-.38s-.61,.08-.94,.25c-.17,.08-.38,.25-.63,.5l-.75-1.25v-.25l-.25-.25-.88-1.38c.33,0,.58-.08,.75-.25,.25-.17,.46-.38,.63-.63,.17-.25,.17-.46,0-.63-.25-.42-.75-.42-1.5,0-.17,.08-.33,.21-.5,.38l-2.01-3.26c.33,0,.58-.08,.75-.25,.58-.33,.75-.71,.5-1.13-.33-.33-.75-.33-1.25,0-.33,.17-.5,.33-.5,.5l-2.13-3.51c.25,0,.46-.08,.63-.25,.58-.25,.75-.58,.5-1-.17-.33-.54-.33-1.13,0-.17,.08-.27,.17-.31,.25-.04,.08-.11,.17-.19,.25l-2.26-3.63c.33,0,.58-.08,.75-.25,.58-.17,.71-.42,.38-.75-.17-.33-.46-.38-.88-.12Zm-7.39-12.16c.17-.17,.21-.33,.12-.5,0-.17-.17-.17-.5,0-.17,.17-.21,.29-.13,.38,0,.25,.17,.29,.5,.13Zm.25-3.26c.17-.17,.21-.29,.13-.38,0-.25-.13-.25-.38,0-.17,.17-.21,.29-.13,.38,0,.25,.13,.25,.38,0Zm2.38,7.64c.25-.25,.33-.46,.25-.63-.17-.17-.38-.17-.63,0-.33,.17-.42,.33-.25,.5,0,.33,.21,.38,.63,.13Zm.25-3.26c.33-.17,.42-.33,.25-.5-.17-.17-.33-.17-.5,0-.33,.17-.42,.33-.25,.5,0,.17,.17,.17,.5,0Zm.38-3.13c.17-.17,.21-.33,.12-.5,0-.17-.17-.17-.5,0-.25,.25-.29,.42-.13,.5,0,.17,.17,.17,.5,0Zm2,10.65c.42-.25,.54-.46,.38-.63-.17-.25-.46-.25-.88,0-.42,.17-.5,.38-.25,.63,.08,.25,.33,.25,.75,0Zm.25-3.13c.5-.17,.63-.38,.38-.63-.17-.33-.42-.33-.75,0-.33,.17-.42,.38-.25,.63,.17,.17,.38,.17,.63,0Zm.38-3.13c.25-.25,.33-.46,.25-.63-.17-.17-.38-.17-.63,0-.33,.17-.42,.33-.25,.5,.08,.25,.29,.29,.63,.12Zm.25-3.26c.33-.17,.42-.33,.25-.5,0-.17-.17-.17-.5,0-.33,.17-.42,.33-.25,.5,.17,.17,.33,.17,.5,0Zm.38-3.13c.17-.17,.25-.33,.25-.5-.17-.17-.33-.17-.5,0-.33,.17-.42,.33-.25,.5,.08,.08,.25,.08,.5,0Zm1.25,13.16c-.42,.17-.54,.42-.38,.75,.17,.33,.46,.33,.88,0,.33-.33,.46-.58,.38-.75-.33-.25-.63-.25-.88,0Zm.25-3.13c-.42,.17-.5,.38-.25,.63,.17,.25,.42,.29,.75,.12,.33-.25,.46-.5,.38-.75-.17-.25-.46-.25-.88,0Zm.38-3.13c-.42,.17-.5,.38-.25,.63,.17,.17,.42,.17,.75,0,.33-.17,.42-.38,.25-.63-.17-.17-.42-.17-.75,0Zm.38-3.13c-.33,.17-.42,.38-.25,.63,.17,.17,.38,.17,.63,0,.33-.17,.42-.38,.25-.63-.17-.17-.38-.17-.63,0Zm.38-3.13c-.33,.17-.42,.33-.25,.5,.17,.17,.38,.17,.63,0,.17-.17,.21-.33,.13-.5,0-.17-.17-.17-.5,0Zm1.13,16.67c-.59,.33-.71,.67-.38,1,.17,.33,.5,.33,1,0,.5-.33,.63-.63,.38-.88-.17-.42-.5-.46-1-.12Zm.38-3.13c-.5,.33-.63,.63-.38,.88,.08,.25,.38,.29,.88,.12,.5-.33,.67-.63,.5-.88-.25-.25-.59-.29-1-.13Zm.38-3.01c-.42,.17-.54,.42-.38,.75,.17,.33,.46,.33,.88,0,.33-.33,.46-.58,.38-.75-.17-.25-.46-.25-.88,0Zm2.13,47.87c1-.67,1.34-1.38,1-2.13-.17-.33-.5-.5-1-.5s-.96,.13-1.38,.38c-.42,.33-.73,.69-.94,1.07-.21,.38-.23,.73-.06,1.07,.42,.67,1.21,.71,2.38,.12Zm-1.75-51.01c-.5,.17-.63,.38-.38,.63,.17,.25,.42,.29,.75,.13,.33-.25,.46-.5,.38-.75-.17-.33-.42-.33-.75,0Zm.25-3.13c-.42,.17-.5,.38-.25,.63,.08,.25,.33,.25,.75,0,.33-.17,.42-.38,.25-.63-.17-.08-.42-.08-.75,0Zm.38-3.13c-.33,.17-.42,.38-.25,.63,.17,.17,.38,.17,.63,0,.33-.17,.42-.38,.25-.63,0-.17-.21-.17-.63,0Zm1.5,20.93c.58-.33,.75-.71,.5-1.13-.17-.33-.54-.33-1.13,0-.59,.25-.79,.63-.63,1.13,.25,.25,.67,.25,1.25,0Zm-.38-4.26c-.59,.33-.71,.67-.38,1,.17,.42,.5,.46,1,.12,.58-.42,.75-.75,.5-1-.17-.42-.54-.46-1.13-.12Zm.38-3.13c-.59,.33-.71,.67-.38,1,.17,.33,.5,.33,1,0,.5-.33,.63-.63,.38-.88-.17-.33-.5-.38-1-.13Zm.38-3.01c-.42,.17-.54,.42-.38,.75,.17,.33,.46,.38,.88,.13,.5-.33,.67-.63,.5-.88-.17-.33-.5-.33-1,0Zm.38-3.13c-.42,.17-.54,.42-.38,.75,.17,.33,.46,.33,.88,0,.42-.17,.54-.42,.38-.75-.17-.25-.46-.25-.88,0Zm2.13,47.87c.42-.33,.73-.69,.94-1.07,.21-.38,.23-.73,.06-1.07-.5-.67-1.3-.67-2.38,0-1,.59-1.3,1.25-.88,2.01,.17,.33,.48,.5,.94,.5s.9-.12,1.32-.38Zm-1.75-51.01c-.42,.17-.54,.42-.38,.75,.17,.17,.42,.17,.75,0,.33-.25,.46-.5,.38-.75-.25-.25-.5-.25-.75,0Zm.38-3.13c-.5,.17-.63,.38-.38,.63,.17,.33,.42,.33,.75,0,.33-.17,.42-.38,.25-.63-.17-.17-.38-.17-.63,0Zm1.13,24.19c.67-.42,.88-.83,.63-1.25-.33-.42-.8-.42-1.38,0-.25,.17-.46,.38-.63,.63-.17,.25-.17,.46,0,.63,.33,.5,.79,.5,1.38,0Zm-.75-27.32c-.25,.17-.38,.38-.38,.63,.17,.17,.38,.17,.63,0,.25-.08,.38-.29,.38-.63-.17-.17-.38-.17-.63,0Zm1.13,24.19c.58-.42,.75-.83,.5-1.25-.25-.42-.67-.42-1.25,0-.67,.33-.88,.71-.63,1.13,.25,.42,.71,.46,1.38,.12Zm.25-3.26c.58-.33,.75-.71,.5-1.13-.17-.33-.54-.33-1.13,0-.67,.33-.84,.71-.5,1.13,.17,.33,.54,.33,1.13,0Zm-.25-4.26c-.67,.33-.84,.67-.5,1,.17,.42,.54,.46,1.13,.13,.5-.33,.67-.67,.5-1-.25-.42-.63-.46-1.13-.13Zm.25-3.01c-.5,.17-.63,.46-.38,.88,.17,.33,.5,.33,1,0,.5-.33,.67-.63,.5-.88-.25-.25-.63-.25-1.13,0Zm.38-3.13c-.42,.25-.54,.54-.38,.88,.17,.33,.5,.33,1,0,.42-.25,.54-.54,.38-.88-.17-.33-.5-.33-1,0Zm.38-3.13c-.42,.25-.54,.5-.38,.75,.17,.33,.46,.33,.88,0,.42-.17,.54-.42,.38-.75-.17-.25-.46-.25-.88,0Zm1.25,24.31c.33-.17,.58-.4,.75-.69,.17-.29,.17-.52,0-.69-.33-.5-.88-.54-1.63-.13-.67,.5-.88,1-.63,1.5,.33,.5,.83,.5,1.5,0Zm.88,23.56c.42-.25,.73-.58,.94-1,.21-.42,.23-.79,.06-1.13-.5-.67-1.25-.67-2.26,0-.5,.25-.84,.59-1,1-.17,.42-.17,.75,0,1,.42,.67,1.17,.71,2.26,.13Zm-1.75-51.01c-.33,.33-.46,.59-.38,.75,.17,.17,.46,.17,.88,0,.25-.25,.33-.5,.25-.75-.17-.17-.42-.17-.75,0Zm.38,22.93c-.25,.17-.46,.38-.63,.63-.17,.25-.17,.46,0,.63,.25,.42,.75,.46,1.5,.12,.75-.42,.96-.88,.63-1.38-.25-.42-.75-.42-1.5,0Zm.38,22.81c-.42,.25-.71,.56-.88,.94-.17,.38-.17,.73,0,1.07,.17,.25,.46,.4,.88,.44,.42,.04,.83-.1,1.25-.44,.42-.25,.73-.56,.94-.94,.21-.38,.23-.69,.06-.94-.42-.67-1.17-.71-2.26-.12Zm0-25.94c-.59,.33-.79,.75-.63,1.25,.33,.5,.79,.5,1.38,0,.75-.33,.96-.75,.63-1.25-.25-.42-.71-.42-1.38,0Zm.38,22.81c-.92,.58-1.21,1.21-.88,1.88,.42,.67,1.13,.71,2.13,.12,1.08-.58,1.38-1.21,.88-1.88-.42-.67-1.13-.71-2.13-.12Zm0-25.94c-.59,.5-.75,.88-.5,1.13,.17,.42,.58,.46,1.25,.13,.58-.42,.75-.83,.5-1.25-.17-.33-.59-.33-1.25,0Zm.38-3.13c-.59,.42-.75,.79-.5,1.13,.08,.17,.25,.25,.5,.25s.46-.08,.63-.25c.58-.33,.79-.67,.63-1-.25-.33-.67-.38-1.25-.13Zm.38-3.13c-.5,.33-.67,.71-.5,1.13,.17,.33,.54,.33,1.13,0,.5-.33,.67-.67,.5-1-.25-.42-.63-.46-1.13-.13Zm.38-3.01c-.5,.25-.67,.54-.5,.88,.17,.33,.5,.33,1,0,.5-.25,.67-.54,.5-.88-.17-.33-.5-.33-1,0Zm1.38,24.44c.33-.17,.58-.42,.75-.75,.17-.33,.17-.58,0-.75-.42-.5-1-.54-1.75-.13-.84,.42-1.09,.96-.75,1.63,.25,.42,.83,.42,1.75,0Zm-1.13-27.57c-.42,.25-.54,.54-.38,.88,.17,.33,.5,.33,1,0,.42-.25,.54-.54,.38-.88-.17-.33-.5-.33-1,0Zm.5,22.81c-.42,.17-.69,.42-.81,.75-.13,.33-.11,.59,.06,.75,.17,.25,.4,.38,.69,.38s.6-.08,.94-.25c.33-.17,.58-.42,.75-.75,.17-.33,.17-.58,0-.75-.17-.25-.4-.38-.69-.38s-.61,.08-.94,.25Zm.38-3.01c-.33,.17-.59,.4-.75,.69-.17,.29-.17,.52,0,.69,.33,.5,.88,.5,1.63,0,.75-.42,.96-.88,.63-1.38-.33-.5-.84-.5-1.5,0Zm1.63,24.94c.42-.25,.73-.58,.94-1,.21-.42,.23-.75,.06-1-.42-.67-1.17-.71-2.26-.12-.42,.25-.73,.58-.94,1-.21,.42-.23,.75-.06,1,.42,.67,1.17,.71,2.26,.12Zm-.5-26.69c.75-.42,.96-.88,.63-1.38-.25-.42-.75-.42-1.5,0-.59,.42-.79,.84-.63,1.25,.33,.59,.83,.63,1.5,.13Zm.88,23.56c.42-.33,.71-.69,.88-1.07,.17-.38,.17-.69,0-.94-.42-.67-1.13-.71-2.13-.12-1.09,.58-1.42,1.25-1,2,.5,.67,1.25,.71,2.26,.12Zm-.88-5.26c-1,.59-1.34,1.21-1,1.88,.42,.67,1.13,.71,2.13,.13,1.08-.58,1.38-1.21,.88-1.88-.17-.25-.44-.4-.81-.44-.38-.04-.77,.06-1.19,.31Zm-.5-22.81c-.59,.42-.75,.84-.5,1.25,.17,.5,.63,.5,1.38,0,.67-.33,.83-.75,.5-1.25-.17-.42-.63-.42-1.38,0Zm.75,19.8c-.92,.5-1.21,1.09-.88,1.75,.42,.5,1.13,.54,2.13,.12,.92-.67,1.17-1.29,.75-1.88-.33-.58-1-.58-2.01,0Zm-.38-22.93c-.59,.5-.75,.88-.5,1.13,.17,.42,.58,.46,1.25,.12,.58-.5,.75-.88,.5-1.13-.17-.42-.59-.46-1.25-.12Zm.38-3.13c-.59,.5-.75,.88-.5,1.13,.17,.5,.58,.5,1.25,0,.5-.33,.67-.67,.5-1-.25-.33-.67-.38-1.25-.13Zm.38,22.93c-.42,.17-.69,.44-.81,.81-.13,.38-.11,.69,.06,.94,.17,.25,.42,.38,.75,.38s.71-.12,1.13-.38c.83-.58,1.13-1.17,.88-1.75-.42-.58-1.09-.58-2.01,0Zm.38-3.13c-.84,.42-1.09,.96-.75,1.63,.17,.25,.42,.38,.75,.38s.67-.08,1-.25c.92-.58,1.21-1.13,.88-1.63-.5-.58-1.13-.63-1.88-.13Zm.38-3.13c-.75,.59-1,1.13-.75,1.63,.33,.5,.92,.5,1.75,0,.33-.17,.58-.42,.75-.75,.17-.33,.17-.58,0-.75-.17-.25-.42-.38-.75-.38s-.67,.08-1,.25Zm1.25-1.5c.83-.42,1.08-.92,.75-1.5-.17-.25-.4-.38-.69-.38s-.61,.08-.94,.25c-.75,.59-1,1.09-.75,1.5,.17,.25,.4,.38,.69,.38s.6-.08,.94-.25Zm-.5-4.64c-.67,.42-.92,.88-.75,1.38,.33,.5,.88,.5,1.63,0,.75-.42,.96-.88,.63-1.38-.25-.42-.75-.42-1.5,0Zm1.63,24.94c.5-.25,.83-.58,1-1,.17-.42,.17-.75,0-1-.42-.67-1.17-.71-2.26-.12-.42,.25-.73,.58-.94,1-.21,.42-.23,.79-.06,1.13,.5,.67,1.25,.67,2.26,0Zm-.88-5.26c-.42,.25-.73,.59-.94,1-.21,.42-.23,.75-.06,1,.42,.67,1.17,.71,2.26,.12,1-.75,1.29-1.42,.88-2-.17-.33-.46-.5-.88-.5s-.84,.13-1.25,.38Zm-.38-22.81c-.67,.42-.88,.84-.63,1.25,.08,.17,.27,.27,.56,.31,.29,.04,.56-.02,.81-.19,.75-.42,.96-.88,.63-1.38-.33-.42-.79-.42-1.38,0Zm1.88,21.68c1.08-.58,1.38-1.21,.88-1.88-.17-.25-.44-.4-.81-.44-.38-.04-.77,.06-1.19,.31-1,.59-1.34,1.25-1,2,.17,.25,.46,.38,.88,.38s.83-.12,1.25-.38Zm-1.63-24.81c-.59,.42-.75,.84-.5,1.25,.17,.5,.63,.5,1.38,0,.58-.33,.79-.75,.63-1.25-.42-.33-.92-.33-1.5,0Zm2,21.68c.92-.58,1.21-1.21,.88-1.88-.42-.58-1.09-.58-2.01,0-1,.59-1.3,1.17-.88,1.75,.33,.67,1,.71,2,.12Zm-.88-5.01c-.84,.59-1.09,1.17-.75,1.75,.17,.25,.42,.38,.75,.38s.71-.12,1.13-.38c.42-.17,.71-.44,.88-.81,.17-.38,.17-.65,0-.81-.5-.67-1.17-.71-2.01-.13Zm.38-3.13c-.33,.25-.59,.54-.75,.88-.17,.33-.17,.59,0,.75,.17,.25,.42,.38,.75,.38s.71-.08,1.13-.25c.33-.25,.58-.54,.75-.88,.17-.33,.17-.58,0-.75-.17-.25-.42-.38-.75-.38s-.71,.08-1.13,.25Zm1.38-1.5c.83-.42,1.08-.92,.75-1.5-.25-.5-.84-.54-1.75-.13-.75,.59-1,1.13-.75,1.63,.17,.17,.42,.27,.75,.31,.33,.04,.67-.06,1-.31Zm-.63-4.64c-.33,.17-.59,.4-.75,.69-.17,.29-.17,.52,0,.69,.25,.5,.83,.54,1.75,.12,.75-.5,.96-1,.63-1.5-.17-.17-.4-.27-.69-.31-.29-.04-.61,.06-.94,.31Zm.38-3.13c-.75,.42-.96,.88-.63,1.38,.25,.42,.75,.42,1.5,0,.75-.42,.96-.88,.63-1.38-.25-.42-.75-.42-1.5,0Zm1.75,24.81c1.08-.58,1.38-1.21,.88-1.88-.17-.25-.44-.4-.81-.44-.38-.04-.77,.06-1.19,.31-1,.59-1.34,1.25-1,2.01,.17,.25,.46,.38,.88,.38s.83-.13,1.25-.38Zm.25-3.01c1-.58,1.29-1.25,.88-2.01-.33-.67-1.05-.71-2.13-.12-1,.67-1.34,1.34-1,2,.42,.67,1.17,.71,2.26,.13Zm-.88-5.14c-1,.59-1.3,1.21-.88,1.88,.17,.25,.44,.38,.81,.38s.77-.12,1.19-.38c.92-.58,1.25-1.21,1-1.88-.5-.67-1.21-.67-2.13,0Zm1.5-1.25c.83-.58,1.13-1.21,.88-1.88-.42-.58-1.09-.58-2.01,0-1,.59-1.3,1.17-.88,1.75,.17,.25,.44,.4,.81,.44,.38,.04,.77-.06,1.19-.31Zm-.75-5.01c-.92,.59-1.21,1.17-.88,1.75,.17,.25,.42,.38,.75,.38s.71-.13,1.13-.38c.92-.42,1.21-.96,.88-1.63-.5-.58-1.13-.63-1.88-.12Zm.25-3.13c-.33,.25-.59,.54-.75,.88-.17,.33-.17,.59,0,.75,.17,.25,.42,.38,.75,.38s.71-.08,1.13-.25c.75-.5,1-1.04,.75-1.63-.17-.25-.42-.38-.75-.38s-.71,.08-1.13,.25Zm.38-3.01c-.75,.5-1,1-.75,1.5,.42,.59,1,.59,1.75,0,.83-.42,1.08-.92,.75-1.5-.33-.58-.92-.58-1.75,0Zm2.76,15.54c1-.58,1.33-1.25,1-2-.5-.67-1.25-.67-2.26,0-1.09,.59-1.38,1.21-.88,1.88,.17,.33,.46,.5,.88,.5s.83-.12,1.25-.38Zm-.88-5.14c-1.09,.58-1.38,1.21-.88,1.88,.17,.25,.46,.38,.88,.38s.83-.12,1.25-.38c.83-.58,1.13-1.21,.88-1.88-.42-.58-1.13-.58-2.13,0Zm.38-3.13c-.92,.59-1.21,1.17-.88,1.75,.42,.67,1.08,.71,2,.12,.83-.58,1.13-1.17,.88-1.75-.42-.67-1.09-.71-2.01-.13Zm1.38-1.25c.92-.5,1.21-1.08,.88-1.75-.17-.25-.42-.38-.75-.38s-.71,.08-1.13,.25c-.92,.59-1.21,1.17-.88,1.75,.42,.5,1.04,.54,1.88,.13Zm-.63-5.01c-.92,.59-1.21,1.17-.88,1.75,.5,.5,1.13,.5,1.88,0,.92-.5,1.17-1.04,.75-1.63-.17-.25-.42-.38-.75-.38s-.67,.08-1,.25Zm.38-3.01c-.42,.17-.69,.42-.81,.75-.13,.33-.11,.59,.06,.75,.17,.25,.4,.38,.69,.38s.6-.08,.94-.25c.83-.58,1.08-1.13,.75-1.63-.17-.17-.4-.27-.69-.31-.29-.04-.61,.06-.94,.31Zm2.63,15.54c1.08-.58,1.42-1.25,1-2-.5-.67-1.25-.67-2.26,0-1.09,.58-1.38,1.21-.88,1.88,.42,.67,1.13,.71,2.13,.12Zm.38-3.13c.42-.25,.71-.56,.88-.94,.17-.38,.17-.73,0-1.07-.42-.58-1.13-.58-2.13,0-.42,.25-.71,.56-.88,.94-.17,.38-.17,.69,0,.94,.5,.67,1.21,.71,2.13,.13Zm-.88-5.14c-.84,.59-1.13,1.21-.88,1.88,.42,.59,1.09,.59,2.01,0,1-.58,1.29-1.17,.88-1.75-.17-.25-.44-.4-.81-.44-.38-.04-.77,.06-1.19,.31Zm1.5-1.25c.92-.58,1.17-1.17,.75-1.75-.17-.25-.42-.38-.75-.38s-.71,.08-1.13,.25c-.92,.59-1.21,1.17-.88,1.75,.42,.59,1.08,.63,2,.12Zm-.75-4.89c-.92,.5-1.17,1.05-.75,1.63,.25,.59,.83,.59,1.76,0,.92-.5,1.17-1.04,.75-1.63-.34-.58-.92-.58-1.76,0Zm.38-3.13c-.42,.17-.69,.42-.81,.75-.12,.33-.11,.59,.06,.75,.25,.5,.83,.54,1.75,.13,.75-.58,1-1.13,.75-1.63-.5-.5-1.09-.5-1.75,0Zm.38-3.13c-.84,.42-1.09,.92-.75,1.5,.33,.5,.88,.5,1.63,0,.75-.5,1-1,.75-1.5-.33-.5-.88-.5-1.63,0Zm2.26,18.67c1.09-.58,1.42-1.25,1-2.01-.5-.67-1.21-.67-2.13,0-1.09,.59-1.42,1.25-1,2.01,.17,.25,.46,.38,.88,.38s.83-.12,1.25-.38Zm.38-3.13c1.08-.58,1.38-1.21,.88-1.88-.17-.33-.46-.5-.88-.5s-.84,.13-1.25,.38c-.92,.59-1.21,1.21-.88,1.88,.5,.67,1.21,.71,2.13,.12Zm-.88-5.14c-.92,.59-1.21,1.21-.88,1.88,.42,.59,1.09,.59,2.01,0,1-.58,1.29-1.17,.88-1.75-.33-.67-1-.71-2-.13Zm1.5-1.25c.92-.58,1.17-1.17,.75-1.75-.17-.25-.42-.38-.75-.38s-.71,.08-1.13,.25c-.92,.59-1.17,1.17-.75,1.75,.17,.25,.42,.38,.75,.38s.71-.08,1.13-.25Zm-.75-4.89c-.92,.5-1.17,1.05-.75,1.63,.17,.25,.42,.38,.75,.38s.67-.13,1-.38c.92-.42,1.21-.96,.88-1.63-.42-.58-1.04-.58-1.88,0Zm.38-3.13c-.42,.17-.69,.42-.81,.75-.12,.33-.11,.59,.06,.75,.25,.5,.83,.54,1.75,.12,.33-.17,.58-.42,.75-.75,.17-.33,.17-.63,0-.88-.17-.17-.42-.25-.75-.25s-.67,.08-1,.25Zm.38-3.13c-.34,.17-.59,.42-.75,.75-.17,.33-.17,.59,0,.75,.17,.17,.39,.27,.69,.31,.29,.04,.61-.06,.94-.31,.33-.17,.58-.4,.75-.69,.17-.29,.17-.52,0-.69-.17-.25-.4-.38-.69-.38s-.61,.08-.94,.25Zm.38-3.13c-.75,.5-1,1-.75,1.5,.33,.5,.88,.5,1.63,0,.75-.42,.96-.88,.63-1.38-.33-.5-.84-.54-1.5-.13Zm2.01,21.81c1.08-.58,1.38-1.21,.88-1.88-.42-.67-1.13-.71-2.13-.12-1.09,.59-1.42,1.25-1,2,.42,.59,1.17,.59,2.26,0Zm-1.63-24.81c-.75,.33-.96,.75-.63,1.25,.08,.17,.27,.25,.56,.25s.56-.08,.82-.25c.75-.33,.96-.75,.62-1.25-.33-.42-.79-.42-1.38,0Zm1.88,21.68c1.08-.58,1.38-1.21,.88-1.88-.17-.33-.44-.5-.81-.5s-.77,.13-1.19,.38c-1,.59-1.34,1.21-1,1.88,.17,.33,.46,.5,.88,.5s.83-.13,1.25-.38Zm-.88-5.14c-.42,.25-.69,.56-.81,.94s-.11,.69,.06,.94c.33,.59,1,.59,2.01,0,.42-.17,.69-.44,.81-.81,.12-.38,.1-.69-.06-.94-.25-.5-.92-.54-2-.13Zm.38-3.01c-.92,.5-1.17,1.05-.75,1.63,.33,.67,.96,.71,1.88,.12,.83-.58,1.13-1.17,.88-1.75-.42-.58-1.09-.58-2.01,0Zm.38-3.13c-.84,.42-1.09,.96-.75,1.63,.17,.25,.42,.38,.75,.38s.71-.12,1.13-.38c.33-.17,.58-.42,.75-.75,.17-.33,.17-.63,0-.88-.17-.17-.42-.27-.75-.31-.33-.04-.71,.06-1.13,.31Zm1.38-1.5c.33-.17,.58-.42,.75-.75,.17-.33,.17-.58,0-.75-.25-.5-.84-.54-1.76-.13-.33,.17-.58,.42-.75,.75-.17,.33-.17,.59,0,.75,.17,.25,.42,.38,.75,.38s.67-.08,1-.25Zm-.63-4.76c-.34,.17-.59,.42-.75,.75-.17,.33-.17,.59,0,.75,.17,.25,.39,.38,.69,.38s.61-.08,.94-.25c.83-.5,1.08-1,.75-1.5-.17-.25-.4-.38-.69-.38s-.61,.08-.94,.25Zm.38-3.13c-.67,.42-.88,.92-.62,1.5,.08,.17,.27,.25,.56,.25s.61-.08,.94-.25c.75-.42,.96-.88,.63-1.38-.33-.5-.84-.54-1.5-.12Zm.38-3.01c-.75,.33-.96,.75-.63,1.25,.25,.42,.71,.46,1.38,.13,.75-.42,.96-.88,.63-1.38-.08-.17-.27-.25-.56-.25s-.56,.08-.81,.25Zm1.63,24.81c1.08-.58,1.38-1.21,.88-1.88-.17-.33-.46-.5-.88-.5s-.84,.13-1.25,.38c-1,.59-1.34,1.25-1,2.01,.5,.67,1.25,.67,2.26,0Zm-1.25-27.95c-.75,.33-.96,.75-.63,1.25,.25,.42,.71,.42,1.38,0,.58-.33,.79-.75,.63-1.25-.33-.42-.79-.42-1.38,0Zm1.5,24.81c1-.58,1.34-1.21,1-1.88-.5-.67-1.21-.71-2.13-.12-1.09,.59-1.38,1.21-.88,1.88,.17,.33,.44,.5,.81,.5s.77-.12,1.19-.38Zm.38-3.13c.92-.58,1.21-1.21,.88-1.88-.42-.58-1.09-.63-2.01-.13-1.09,.59-1.38,1.21-.88,1.88,.25,.5,.92,.54,2.01,.13Zm-.75-5.01c-.42,.17-.71,.44-.88,.81-.17,.38-.17,.65,0,.81,.33,.67,.96,.71,1.88,.13,.83-.58,1.13-1.17,.88-1.75-.42-.58-1.04-.58-1.88,0Zm.25-3.13c-.33,.17-.59,.42-.75,.75-.17,.33-.17,.63,0,.88,.17,.25,.42,.38,.75,.38s.71-.08,1.13-.25c.75-.58,1-1.17,.75-1.75-.17-.17-.42-.27-.75-.31-.34-.04-.71,.06-1.13,.31Zm.38-3.13c-.34,.17-.59,.42-.75,.75-.17,.33-.17,.63,0,.88,.42,.42,1,.42,1.75,0,.83-.42,1.08-.92,.75-1.5-.25-.5-.84-.54-1.75-.13Zm.38-3.13c-.33,.17-.59,.42-.75,.75-.17,.33-.17,.59,0,.75,.33,.5,.92,.54,1.75,.13,.75-.5,.96-1,.63-1.5-.17-.25-.4-.38-.69-.38s-.61,.08-.94,.25Zm.38-3.01c-.75,.42-.96,.88-.63,1.38,.25,.42,.75,.42,1.5,0,.75-.42,.96-.88,.63-1.38-.25-.42-.75-.42-1.5,0Zm.38-3.13c-.67,.42-.88,.84-.63,1.25,.33,.5,.83,.54,1.5,.13,.58-.42,.79-.88,.63-1.38-.33-.5-.84-.5-1.5,0Zm.38-3.13c-.67,.42-.88,.84-.63,1.25,.33,.5,.79,.5,1.38,0,.25-.17,.46-.38,.62-.63s.17-.46,0-.63c-.33-.42-.79-.42-1.38,0Zm.38-3.13c-.59,.42-.79,.8-.63,1.13,.25,.42,.67,.46,1.25,.13,.58-.33,.79-.71,.63-1.13-.25-.33-.67-.38-1.25-.13Zm1.5,24.81c.92-.58,1.21-1.21,.88-1.88-.42-.58-1.09-.58-2,0-.42,.17-.71,.44-.88,.81s-.17,.69,0,.94c.17,.25,.44,.38,.81,.38s.77-.08,1.19-.25Zm.25-3.26c.92-.5,1.21-1.08,.88-1.75-.34-.58-.96-.58-1.88,0-.92,.59-1.21,1.17-.88,1.75,.42,.59,1.04,.59,1.88,0Zm.38-3.13c.83-.58,1.08-1.13,.75-1.63-.17-.25-.42-.38-.75-.38s-.67,.08-1,.25c-.84,.59-1.13,1.13-.88,1.63,.42,.5,1.04,.54,1.88,.13Zm-.75-4.89c-.75,.59-.96,1.13-.63,1.63,.17,.17,.4,.27,.69,.31,.29,.04,.61-.06,.94-.31,.83-.42,1.09-.92,.75-1.5-.25-.5-.84-.54-1.75-.13Zm.38-3.13c-.67,.59-.88,1.09-.62,1.5,.17,.25,.39,.38,.69,.38s.61-.08,.94-.25c.33-.17,.56-.42,.69-.75,.12-.33,.1-.58-.06-.75-.34-.5-.88-.54-1.63-.13Zm.38-3.01c-.75,.42-.96,.88-.63,1.38,.25,.42,.75,.42,1.5,0,.33-.17,.58-.4,.75-.69,.17-.29,.17-.52,0-.69-.33-.5-.88-.5-1.63,0Zm.38-3.13c-.67,.42-.88,.84-.62,1.25,.33,.5,.83,.54,1.5,.13,.67-.5,.88-.96,.62-1.38-.25-.42-.75-.42-1.5,0Zm.38-3.13c-.67,.5-.88,.92-.63,1.25,.33,.5,.79,.5,1.38,0,.75-.33,.96-.75,.63-1.25-.42-.42-.88-.42-1.38,0Zm.38-3.13c-.58,.42-.79,.84-.62,1.25,.33,.33,.79,.33,1.38,0,.25-.17,.44-.35,.56-.56,.12-.21,.1-.4-.06-.56-.25-.33-.67-.38-1.25-.13Zm1.88,21.56c.42-.17,.69-.44,.81-.81s.1-.65-.06-.81c-.34-.67-.96-.71-1.88-.12-.92,.59-1.21,1.17-.88,1.75,.42,.59,1.09,.59,2.01,0Zm.25-3.13c.92-.67,1.17-1.21,.75-1.63-.25-.5-.84-.54-1.75-.13-.92,.59-1.21,1.13-.88,1.63,.42,.5,1.04,.54,1.88,.12Zm.25-3.26c.42-.17,.69-.42,.82-.75,.12-.33,.1-.58-.06-.75-.17-.25-.4-.38-.69-.38s-.61,.08-.94,.25c-.75,.5-1,1.05-.75,1.63,.17,.17,.4,.27,.69,.31,.29,.04,.61-.06,.94-.31Zm-.62-4.64c-.75,.42-.96,.88-.63,1.38,.17,.25,.39,.38,.69,.38s.61-.08,.94-.25c.33-.17,.58-.42,.75-.75,.17-.33,.17-.58,0-.75-.34-.5-.92-.5-1.75,0Zm.38-3.13c-.75,.42-.96,.88-.63,1.38s.83,.5,1.5,0c.33-.17,.58-.4,.75-.69,.17-.29,.17-.52,0-.69-.33-.5-.88-.5-1.63,0Zm.38-3.13c-.67,.5-.88,.96-.63,1.38,.25,.42,.75,.42,1.5,0,.67-.5,.88-.96,.63-1.38-.25-.42-.75-.42-1.5,0Zm.38-3.13c-.59,.42-.79,.84-.63,1.25,.25,.42,.71,.46,1.38,.13,.75-.5,.96-.92,.63-1.25-.25-.42-.71-.46-1.38-.13Zm2.51,15.29c.92-.42,1.21-.96,.88-1.63-.42-.5-1.05-.54-1.88-.12-.42,.25-.69,.54-.81,.88-.12,.33-.11,.59,.06,.75,.33,.67,.92,.71,1.75,.13Zm.38-3.13c.75-.58,1-1.13,.75-1.63-.42-.58-1-.58-1.75,0-.84,.42-1.09,.92-.75,1.5,.25,.5,.83,.54,1.75,.13Zm-.63-4.76c-.84,.42-1.09,.92-.75,1.5,.33,.5,.88,.5,1.63,0,.75-.5,1-1,.75-1.5-.33-.5-.88-.5-1.63,0Zm.38-3.13c-.34,.17-.59,.4-.75,.69-.17,.29-.17,.52,0,.69,.33,.5,.88,.54,1.63,.13,.67-.5,.88-1,.63-1.5-.34-.5-.84-.5-1.5,0Zm.25-3.13c-.59,.42-.79,.88-.63,1.38,.25,.42,.75,.42,1.5,0,.67-.42,.88-.83,.63-1.25-.34-.5-.84-.54-1.5-.12Zm.38-3.13c-.58,.42-.79,.84-.62,1.25,.25,.42,.75,.46,1.5,.13,.58-.42,.75-.83,.5-1.25-.17-.42-.63-.46-1.38-.13Zm2.88,12.16c.75-.58,1-1.13,.75-1.63-.17-.17-.42-.27-.75-.31-.33-.04-.67,.06-1,.31-.34,.17-.59,.42-.75,.75-.17,.33-.17,.59,0,.75,.25,.5,.83,.54,1.75,.13Zm-.63-4.76c-.75,.5-1,1-.75,1.5,.33,.5,.88,.5,1.63,0,.84-.42,1.09-.92,.75-1.5-.33-.5-.88-.5-1.63,0Zm.38-3.13c-.34,.17-.59,.4-.75,.69-.17,.29-.17,.52,0,.69,.33,.5,.88,.54,1.63,.13,.75-.42,.96-.88,.63-1.38-.25-.5-.75-.54-1.5-.12Zm.38-3.13c-.75,.42-.96,.88-.63,1.38,.08,.17,.27,.25,.56,.25s.56-.08,.81-.25c.67-.42,.88-.83,.63-1.25-.25-.42-.71-.46-1.38-.13Zm2.88,1.13c-.75,.42-.96,.88-.63,1.38,.25,.5,.75,.54,1.5,.13,.75-.42,.96-.88,.63-1.38-.25-.5-.75-.54-1.5-.13Z"/></svg>